<svg id="eesAjH1Sfyh1" xmlns="http://www.w3.org/2000/svg" xmlns:xlink="http://www.w3.org/1999/xlink" viewBox="0 0 300 300" shape-rendering="geometricPrecision" text-rendering="geometricPrecision"><style><![CDATA[#eesAjH1Sfyh2 {animation: eesAjH1Sfyh2_c_o 800ms linear infinite normal forwards}@keyframes eesAjH1Sfyh2_c_o { 0% {opacity: 1} 50% {opacity: 1} 75% {opacity: 0.3} 100% {opacity: 1}} #eesAjH1Sfyh3 {animation: eesAjH1Sfyh3_c_o 800ms linear infinite normal forwards}@keyframes eesAjH1Sfyh3_c_o { 0% {opacity: 1} 25% {opacity: 1} 50% {opacity: 0.3} 75% {opacity: 1} 100% {opacity: 1}} #eesAjH1Sfyh4 {animation: eesAjH1Sfyh4_c_o 800ms linear infinite normal forwards}@keyframes eesAjH1Sfyh4_c_o { 0% {opacity: 1} 25% {opacity: 0.3} 50% {opacity: 1} 100% {opacity: 1}}]]></style><path id="eesAjH1Sfyh2" d="M263.4,282c-10.3,0-18.6-8.3-18.6-18.6c0-114.8-93.4-208.2-208.2-208.2C26.3,55.2,18,46.9,18,36.6s8.3-18.6,18.6-18.6C171.9,18,282,128.1,282,263.4c0,10.3-8.3,18.6-18.6,18.6Z" fill="#344055"/><path id="eesAjH1Sfyh3" d="M192.8,282c-10.3,0-18.6-8.3-18.6-18.6c0-75.9-61.7-137.6-137.6-137.6-10.3,0-18.6-8.3-18.6-18.6s8.3-18.6,18.6-18.6c96.4,0,174.8,78.4,174.8,174.8c0,10.3-8.4,18.6-18.6,18.6Z" fill="#344055"/></svg>