<svg width="35" height="49" viewBox="0 0 35 49" fill="none" xmlns="http://www.w3.org/2000/svg">
    <path d="M17.4992 0C8.12323 0 0.495422 7.62892 0.495422 17.0052C0.495422 26.0306 15.9233 47.1173 16.5802 48.0102L17.1933 48.8446C17.265 48.9427 17.3791 49 17.4992 49C17.6212 49 17.7346 48.9427 17.8071 48.8446L18.4198 48.0102C19.0771 47.1173 34.5045 26.0306 34.5045 17.0052C34.5045 7.62892 26.8755 0 17.4992 0ZM17.4992 10.914C20.8587 10.914 23.5905 13.6459 23.5905 17.0052C23.5905 20.3628 20.8586 23.0964 17.4992 23.0964C14.1418 23.0964 11.408 20.3628 11.408 17.0052C11.408 13.6459 14.1416 10.914 17.4992 10.914Z" fill="#3756B8"/>
</svg>
