<svg width="160" height="34" viewBox="0 0 160 34" fill="none" xmlns="http://www.w3.org/2000/svg">
<path d="M12.6308 33.368C11.8641 33.368 11.0821 33.1993 10.2848 32.862C9.51811 32.494 9.13477 31.9113 9.13477 31.114V9.586C9.13477 8.60467 9.38011 7.93 9.87077 7.562C10.3614 7.194 10.7601 6.964 11.0668 6.872H2.18877C1.45277 6.872 0.900773 6.55 0.532773 5.906C0.19544 5.23133 0.0267734 4.54133 0.0267734 3.836C0.0267734 3.06933 0.210773 2.37933 0.578773 1.766C0.946773 1.122 1.48344 0.799998 2.18877 0.799998H22.7508C23.4561 0.799998 23.9928 1.122 24.3608 1.766C24.7288 2.37933 24.9128 3.06933 24.9128 3.836C24.9128 4.54133 24.7288 5.23133 24.3608 5.906C24.0234 6.55 23.4868 6.872 22.7508 6.872H15.7588V31.114C15.7588 31.8807 15.4368 32.448 14.7928 32.816C14.1794 33.184 13.4588 33.368 12.6308 33.368ZM32.9531 30.286C32.9531 32.3407 31.8797 33.368 29.7331 33.368C28.6904 33.368 27.8624 33.1073 27.2491 32.586C26.6357 32.0647 26.3291 31.298 26.3291 30.286V12.07C26.3291 7.838 27.1877 4.81733 28.9051 3.008C30.6224 1.19867 33.3057 0.293999 36.9551 0.293999C40.6964 0.293999 43.4564 1.214 45.2351 3.054C47.0137 4.894 47.9031 7.89933 47.9031 12.07V30.286C47.9031 32.3407 46.8297 33.368 44.6831 33.368C43.6404 33.368 42.8124 33.1073 42.1991 32.586C41.5857 32.0647 41.2791 31.298 41.2791 30.286V19.2C40.6964 19.7213 40.0524 20.166 39.3471 20.534C38.6724 20.902 37.8751 21.086 36.9551 21.086C35.6057 21.086 34.5937 21.3313 33.9191 21.822C33.2751 22.3127 32.9531 23.1867 32.9531 24.444V30.286ZM32.6771 16.808C33.1677 16.3173 33.7504 15.934 34.4251 15.658C35.1304 15.382 35.9737 15.244 36.9551 15.244C38.1204 15.244 39.0097 15.152 39.6231 14.968C40.2671 14.784 40.7117 14.4313 40.9571 13.91C41.2024 13.3887 41.3251 12.622 41.3251 11.61C41.3251 9.34067 41.0031 7.792 40.3591 6.964C39.7151 6.10533 38.5651 5.676 36.9091 5.676C35.3757 5.676 34.3177 6.12067 33.7351 7.01C33.1831 7.86867 32.9071 9.46333 32.9071 11.794C32.9071 12.99 32.8917 14.002 32.8611 14.83C32.8304 15.658 32.7691 16.3173 32.6771 16.808ZM60.6699 30.286C60.6699 32.3407 59.5965 33.368 57.4499 33.368C56.4072 33.368 55.5792 33.1073 54.9659 32.586C54.3525 32.0647 54.0459 31.298 54.0459 30.286V12.208C54.0459 9.32533 54.4292 7.02533 55.1959 5.308C55.9625 3.56 57.2199 2.28733 58.9679 1.49C60.7159 0.692665 63.0465 0.293999 65.9599 0.293999C69.8239 0.293999 72.7372 1.19867 74.6999 3.008C76.6932 4.78667 77.6899 7.85333 77.6899 12.208V30.286C77.6899 32.3407 76.6165 33.368 74.4699 33.368C73.4272 33.368 72.5992 33.1073 71.9859 32.586C71.3725 32.0647 71.0659 31.298 71.0659 30.286V12.208C71.0659 9.93867 70.6672 8.32867 69.8699 7.378C69.1032 6.39666 67.7999 5.906 65.9599 5.906C64.5185 5.906 63.4145 6.12066 62.6479 6.55C61.8812 6.97933 61.3599 7.654 61.0839 8.574C60.8079 9.494 60.6699 10.7053 60.6699 12.208V30.286ZM90.498 30.286C90.498 32.3407 89.4247 33.368 87.278 33.368C86.2353 33.368 85.4073 33.1073 84.794 32.586C84.1807 32.0647 83.874 31.298 83.874 30.286V12.07C83.874 7.838 84.7327 4.81733 86.45 3.008C88.1673 1.19867 90.8507 0.293999 94.5 0.293999C98.2413 0.293999 101.001 1.214 102.78 3.054C104.559 4.894 105.448 7.89933 105.448 12.07V30.286C105.448 32.3407 104.375 33.368 102.228 33.368C101.185 33.368 100.357 33.1073 99.744 32.586C99.1307 32.0647 98.824 31.298 98.824 30.286V19.2C98.2413 19.7213 97.5973 20.166 96.892 20.534C96.2173 20.902 95.42 21.086 94.5 21.086C93.1507 21.086 92.1387 21.3313 91.464 21.822C90.82 22.3127 90.498 23.1867 90.498 24.444V30.286ZM90.222 16.808C90.7127 16.3173 91.2953 15.934 91.97 15.658C92.6753 15.382 93.5187 15.244 94.5 15.244C95.6653 15.244 96.5547 15.152 97.168 14.968C97.812 14.784 98.2567 14.4313 98.502 13.91C98.7473 13.3887 98.87 12.622 98.87 11.61C98.87 9.34067 98.548 7.792 97.904 6.964C97.26 6.10533 96.11 5.676 94.454 5.676C92.9207 5.676 91.8627 6.12067 91.28 7.01C90.728 7.86867 90.452 9.46333 90.452 11.794C90.452 12.99 90.4367 14.002 90.406 14.83C90.3753 15.658 90.314 16.3173 90.222 16.808ZM118.215 30.286C118.215 32.3407 117.141 33.368 114.995 33.368C113.952 33.368 113.124 33.1073 112.511 32.586C111.897 32.0647 111.591 31.298 111.591 30.286V10.644C111.591 7.20933 112.495 4.63333 114.305 2.916C116.114 1.168 119.15 0.293999 123.413 0.293999C126.571 0.293999 129.04 1.13733 130.819 2.824C132.628 4.51067 133.533 7.22467 133.533 10.966C133.533 14.2167 132.674 16.7007 130.957 18.418C129.27 20.1353 126.878 20.994 123.781 20.994C122.033 20.994 120.76 21.132 119.963 21.408C119.196 21.6533 118.705 22.1287 118.491 22.834C118.307 23.5087 118.215 24.5053 118.215 25.824V30.286ZM117.801 16.992C118.169 16.6853 118.521 16.4247 118.859 16.21C119.196 15.9647 119.641 15.7807 120.193 15.658C120.775 15.5047 121.542 15.428 122.493 15.428C123.811 15.428 124.854 15.3207 125.621 15.106C126.387 14.8607 126.924 14.416 127.231 13.772C127.568 13.128 127.737 12.1927 127.737 10.966C127.737 9.34067 127.537 8.16 127.139 7.424C126.771 6.65733 126.234 6.16667 125.529 5.952C124.854 5.70667 124.026 5.584 123.045 5.584C121.266 5.584 120.009 5.906 119.273 6.55C118.567 7.194 118.215 8.31333 118.215 9.908C118.215 11.0427 118.184 12.2847 118.123 13.634C118.061 14.9833 117.954 16.1027 117.801 16.992ZM144.18 30.286C144.18 32.3407 143.106 33.368 140.96 33.368C139.917 33.368 139.089 33.1073 138.476 32.586C137.862 32.0647 137.556 31.298 137.556 30.286V10.644C137.556 7.20933 138.46 4.63333 140.27 2.916C142.079 1.168 145.115 0.293999 149.378 0.293999C152.536 0.293999 155.005 1.13733 156.784 2.824C158.593 4.51067 159.498 7.22467 159.498 10.966C159.498 14.2167 158.639 16.7007 156.922 18.418C155.235 20.1353 152.843 20.994 149.746 20.994C147.998 20.994 146.725 21.132 145.928 21.408C145.161 21.6533 144.67 22.1287 144.456 22.834C144.272 23.5087 144.18 24.5053 144.18 25.824V30.286ZM143.766 16.992C144.134 16.6853 144.486 16.4247 144.824 16.21C145.161 15.9647 145.606 15.7807 146.158 15.658C146.74 15.5047 147.507 15.428 148.458 15.428C149.776 15.428 150.819 15.3207 151.586 15.106C152.352 14.8607 152.889 14.416 153.196 13.772C153.533 13.128 153.702 12.1927 153.702 10.966C153.702 9.34067 153.502 8.16 153.104 7.424C152.736 6.65733 152.199 6.16667 151.494 5.952C150.819 5.70667 149.991 5.584 149.01 5.584C147.231 5.584 145.974 5.906 145.238 6.55C144.532 7.194 144.18 8.31333 144.18 9.908C144.18 11.0427 144.149 12.2847 144.088 13.634C144.026 14.9833 143.919 16.1027 143.766 16.992Z" fill="#3756B8"/>
</svg>
