<svg width="45" height="30" viewBox="0 0 45 30" fill="none" xmlns="http://www.w3.org/2000/svg">
<rect width="45" height="30" rx="5" fill="#FFED00"/>
<path d="M21.5177 11.092L18.6017 13.909C19.2947 14.053 19.8707 14.323 20.3297 14.71C21.2477 15.493 21.7337 16.654 21.7337 17.95C21.7337 18.751 21.5357 19.471 21.1487 20.128C20.3567 21.433 18.8717 22.243 17.3147 22.243C15.2177 22.243 13.5887 20.974 13.0667 19.156L15.1637 18.589C15.4517 19.597 16.3067 20.191 17.2967 20.191C17.6657 20.191 18.0347 20.092 18.4127 19.894C19.1597 19.507 19.5287 18.679 19.5287 17.95C19.5287 17.545 19.4387 17.158 19.2497 16.807C18.8717 16.105 18.1787 15.691 17.3057 15.691C16.8647 15.691 16.4957 15.79 16.1807 15.997L15.1907 14.287L18.9257 11.083H13.5707V9.04002H21.6707L21.5177 11.092Z" fill="#111111"/>
<path d="M28.7276 22.27C25.9646 22.27 24.0656 20.371 24.0656 17.608V13.432C24.0656 10.669 25.9646 8.77002 28.7276 8.77002C31.4906 8.77002 33.3896 10.669 33.3896 13.432V17.608C33.3896 20.371 31.4906 22.27 28.7276 22.27ZM26.2796 17.761C26.2796 19.129 27.3596 20.209 28.7276 20.209C30.0956 20.209 31.1756 19.129 31.1756 17.761V13.27C31.1756 11.893 30.0956 10.813 28.7276 10.813C27.3596 10.813 26.2796 11.893 26.2796 13.27V17.761Z" fill="#111111"/>
</svg>
