<svg width="45" height="30" viewBox="0 0 45 30" fill="none" xmlns="http://www.w3.org/2000/svg">
<rect width="45" height="30" rx="5" fill="#009640"/>
<path d="M18.9088 8.78802C21.4468 8.78802 23.3908 10.732 23.3908 13.486V17.428C23.3908 20.371 21.4918 22.27 18.6658 22.27H16.0378V20.245H18.6658C20.1778 20.245 21.1768 19.039 21.1768 17.725V16.411C20.4658 17.023 19.5478 17.383 18.5938 17.383C16.1548 17.383 14.4178 15.574 14.4178 13.135C14.4178 10.705 16.4698 8.78802 18.9088 8.78802ZM16.6138 13.135C16.6138 14.395 17.6308 15.43 18.8908 15.43C20.1508 15.43 21.1768 14.395 21.1768 13.135C21.1768 11.911 20.1688 10.867 18.9088 10.867C17.6488 10.867 16.6138 11.875 16.6138 13.135Z" fill="white"/>
<path d="M30.3675 9.04002V22H28.1535V11.407L25.7235 12.892V10.498L28.1535 9.04002H30.3675Z" fill="white"/>
</svg>
