<svg width="45" height="30" viewBox="0 0 45 30" fill="none" xmlns="http://www.w3.org/2000/svg">
<rect width="45" height="30" rx="5" fill="#E30613"/>
<path d="M21.8546 19.966V22H13.4846V9.04002H21.8546V11.074H15.6536V14.269H20.7746V16.303H15.6536V19.966H21.8546Z" fill="white"/>
<path d="M28.2529 22.27C25.6789 22.27 23.8339 20.578 23.8339 18.175C23.8339 16.933 24.3379 15.799 25.3009 15.043C24.5719 14.341 24.1669 13.477 24.1669 12.433C24.1669 10.21 25.8589 8.77002 28.2529 8.77002C30.6469 8.77002 32.3479 10.21 32.3479 12.433C32.3479 13.468 31.9789 14.323 31.2319 15.043C32.1769 15.781 32.6989 16.933 32.6989 18.175C32.6989 20.578 30.8359 22.27 28.2529 22.27ZM26.1289 18.175C26.1289 19.516 26.9839 20.227 28.2529 20.227C29.5309 20.227 30.4039 19.516 30.4039 18.175C30.4039 16.843 29.5309 16.114 28.2529 16.114C26.9749 16.114 26.1289 16.843 26.1289 18.175ZM26.4619 12.433C26.4619 13.531 27.1909 14.053 28.2529 14.053C29.3149 14.053 30.0529 13.531 30.0529 12.433C30.0529 11.344 29.3149 10.813 28.2529 10.813C27.1909 10.813 26.4619 11.344 26.4619 12.433Z" fill="white"/>
</svg>
