<svg width="45" height="30" viewBox="0 0 45 30" fill="none" xmlns="http://www.w3.org/2000/svg">
<rect width="45" height="30" rx="5" fill="#A877B2"/>
<path d="M23.8387 17.554C23.2357 20.983 20.9857 22.27 18.0067 22.27C14.1277 22.27 11.8057 19.543 11.8057 15.52C11.8057 11.497 14.1277 8.77002 18.0067 8.77002C20.9857 8.77002 23.3617 10.489 23.8387 13.486H21.6427C21.1297 11.821 19.9237 10.813 18.0067 10.813C15.3967 10.813 14.0917 12.685 14.0827 15.52C14.0827 18.355 15.3967 20.227 18.0067 20.227C19.9237 20.227 21.1297 19.228 21.6427 17.554H23.8387Z" fill="white"/>
<path d="M30.2967 22.27C27.7587 22.27 25.8147 20.326 25.8147 17.572V13.63C25.8147 10.687 27.7137 8.78802 30.5397 8.78802H33.1677V10.813H30.5397C29.0277 10.813 28.0287 12.019 28.0287 13.333V14.647C28.7397 14.035 29.6577 13.675 30.6117 13.675C33.0507 13.675 34.7877 15.484 34.7877 17.923C34.7877 20.353 32.7357 22.27 30.2967 22.27ZM28.0287 17.923C28.0287 19.147 29.0367 20.191 30.2967 20.191C31.5567 20.191 32.5917 19.183 32.5917 17.923C32.5917 16.663 31.5747 15.628 30.3147 15.628C29.0547 15.628 28.0287 16.663 28.0287 17.923Z" fill="white"/>
</svg>
