<svg width="45" height="30" viewBox="0 0 45 30" fill="none" xmlns="http://www.w3.org/2000/svg">
<rect width="45" height="30" rx="5" fill="#F7A600"/>
<path d="M15.1074 22L19.5714 11.092H13.9104V9.04002H21.8934V11.092L17.4474 22H15.1074Z" fill="#111111"/>
<path d="M28.2871 22.27C25.7131 22.27 23.8681 20.578 23.8681 18.175C23.8681 16.933 24.3721 15.799 25.3351 15.043C24.6061 14.341 24.2011 13.477 24.2011 12.433C24.2011 10.21 25.8931 8.77002 28.2871 8.77002C30.6811 8.77002 32.3821 10.21 32.3821 12.433C32.3821 13.468 32.0131 14.323 31.2661 15.043C32.2111 15.781 32.7331 16.933 32.7331 18.175C32.7331 20.578 30.8701 22.27 28.2871 22.27ZM26.1631 18.175C26.1631 19.516 27.0181 20.227 28.2871 20.227C29.5651 20.227 30.4381 19.516 30.4381 18.175C30.4381 16.843 29.5651 16.114 28.2871 16.114C27.0091 16.114 26.1631 16.843 26.1631 18.175ZM26.4961 12.433C26.4961 13.531 27.2251 14.053 28.2871 14.053C29.3491 14.053 30.0871 13.531 30.0871 12.433C30.0871 11.344 29.3491 10.813 28.2871 10.813C27.2251 10.813 26.4961 11.344 26.4961 12.433Z" fill="#111111"/>
</svg>
