<svg width="45" height="30" viewBox="0 0 45 30" fill="none" xmlns="http://www.w3.org/2000/svg">
<rect width="45" height="30" rx="5" fill="#FFED00"/>
<path d="M17.2283 22.27C14.6903 22.27 12.7463 20.326 12.7463 17.572V13.63C12.7463 10.687 14.6453 8.78802 17.4713 8.78802H20.0993V10.813H17.4713C15.9593 10.813 14.9603 12.019 14.9603 13.333V14.647C15.6713 14.035 16.5893 13.675 17.5433 13.675C19.9823 13.675 21.7193 15.484 21.7193 17.923C21.7193 20.353 19.6673 22.27 17.2283 22.27ZM14.9603 17.923C14.9603 19.147 15.9683 20.191 17.2283 20.191C18.4883 20.191 19.5233 19.183 19.5233 17.923C19.5233 16.663 18.5063 15.628 17.2463 15.628C15.9863 15.628 14.9603 16.663 14.9603 17.923Z" fill="#111111"/>
<path d="M28.588 22.27C25.825 22.27 23.926 20.371 23.926 17.608V13.432C23.926 10.669 25.825 8.77002 28.588 8.77002C31.351 8.77002 33.25 10.669 33.25 13.432V17.608C33.25 20.371 31.351 22.27 28.588 22.27ZM26.14 17.761C26.14 19.129 27.22 20.209 28.588 20.209C29.956 20.209 31.036 19.129 31.036 17.761V13.27C31.036 11.893 29.956 10.813 28.588 10.813C27.22 10.813 26.14 11.893 26.14 13.27V17.761Z" fill="#111111"/>
</svg>
