<svg width="45" height="30" viewBox="0 0 45 30" fill="none" xmlns="http://www.w3.org/2000/svg">
<rect width="45" height="30" rx="5" fill="#E30613"/>
<path d="M22.0919 19.966V22H13.7219V9.03998H22.0919V11.074H15.8909V14.269H21.0119V16.303H15.8909V19.966H22.0919Z" fill="white"/>
<path d="M28.4722 13.684C29.2642 13.684 29.9842 13.864 30.6322 14.233C31.9192 14.962 32.6392 16.303 32.6392 17.914C32.6392 18.679 32.4052 19.399 31.9282 20.074C30.9832 21.415 29.6422 22.27 28.0942 22.27C26.1142 22.27 24.4222 21.019 23.8912 19.057L25.9792 18.499C25.9972 18.589 26.1322 18.823 26.3932 19.201C26.9062 19.966 27.5272 20.191 28.1752 20.191C29.4532 20.191 30.4612 19.183 30.4612 17.914C30.4612 16.636 29.4622 15.646 28.1752 15.646C27.3382 15.646 26.8972 15.817 26.1862 16.492L24.3322 15.898L24.7282 9.03998H31.7662V11.074H26.6632L26.4562 14.269C27.0412 13.891 27.9412 13.684 28.4722 13.684Z" fill="white"/>
</svg>
