<svg width="66" height="44" viewBox="0 0 66 44" fill="none" xmlns="http://www.w3.org/2000/svg">
<g clip-path="url(#clip0_70_304)">
<mask id="mask0_70_304" style="mask-type:luminance" maskUnits="userSpaceOnUse" x="0" y="0" width="66" height="44">
<path d="M66 0H0V44H66V0Z" fill="white"/>
</mask>
<g mask="url(#mask0_70_304)">
<path d="M58.6667 0H7.33333C3.28325 0 0 3.28325 0 7.33333V36.6667C0 40.7168 3.28325 44 7.33333 44H58.6667C62.7168 44 66 40.7168 66 36.6667V7.33333C66 3.28325 62.7168 0 58.6667 0Z" fill="#09B89E"/>
<path d="M16 32V13H19.195L27.942 26.3924V13H31.137V32H27.942L19.195 18.6076V32H16Z" fill="#183181"/>
</g>
<path d="M42.7003 32C38.6305 32 35.5814 29.8058 35 26.2164L38.23 25.7344C38.7726 27.9033 40.646 29.1335 42.8941 29.1335C44.8837 29.1335 46.7442 28.195 46.7442 26.5081C46.7442 25.4934 46.0853 24.8212 44.677 24.4026L39.8708 23.0074C38.2171 22.5382 35.7235 21.5615 35.7235 18.3399C35.7235 14.8139 38.7338 12.9749 42.5194 13.0003C46.3437 13.0383 49.031 14.9535 49.8579 18.3399L46.5116 18.9107C46.1111 16.9828 44.3928 15.9047 42.4806 15.854C40.6202 15.8159 38.9922 16.7672 38.9922 18.1877C38.9922 19.5449 40.4264 20.0395 41.6796 20.3693L45.0129 21.2825C46.8217 21.7645 50 22.6777 50 26.3051C50 30.0975 46.5245 32 42.7003 32Z" fill="#183181"/>
</g>
<defs>
<clipPath id="clip0_70_304">
<rect width="66" height="44" fill="white"/>
</clipPath>
</defs>
</svg>
