<svg width="45" height="30" viewBox="0 0 45 30" fill="none" xmlns="http://www.w3.org/2000/svg">
<rect width="45" height="30" rx="5" fill="#C8D300"/>
<path d="M18.8051 22V19.858H13.0631V17.833L17.2121 9.04002H19.6871L15.5381 17.833H18.8051V14.458H21.0011V17.833H22.2161V19.858H21.0011V22H18.8051Z" fill="#111111"/>
<path d="M24.0143 21.982V20.092L29.5583 15.151C30.4133 14.386 30.7103 13.711 30.7103 13.072C30.7103 11.776 29.8193 10.813 28.5323 10.813C27.1823 10.813 26.2283 11.866 26.2643 13.054H24.0323C24.0323 10.462 25.8953 8.77002 28.5773 8.77002C31.0703 8.77002 32.9333 10.561 32.9333 13.099C32.9333 14.953 32.1683 15.7 30.6923 16.996L27.3713 19.939H32.9333V21.982H24.0143Z" fill="#111111"/>
</svg>
