<svg width="45" height="30" viewBox="0 0 45 30" fill="none" xmlns="http://www.w3.org/2000/svg">
<rect width="45" height="30" rx="5" fill="#2581C4"/>
<path d="M18.8533 22.27C16.3153 22.27 14.3713 20.326 14.3713 17.572V13.63C14.3713 10.687 16.2703 8.78802 19.0963 8.78802H21.7243V10.813H19.0963C17.5843 10.813 16.5853 12.019 16.5853 13.333V14.647C17.2963 14.035 18.2143 13.675 19.1683 13.675C21.6073 13.675 23.3443 15.484 23.3443 17.923C23.3443 20.353 21.2923 22.27 18.8533 22.27ZM16.5853 17.923C16.5853 19.147 17.5933 20.191 18.8533 20.191C20.1133 20.191 21.1483 19.183 21.1483 17.923C21.1483 16.663 20.1313 15.628 18.8713 15.628C17.6113 15.628 16.5853 16.663 16.5853 17.923Z" fill="white"/>
<path d="M26.208 22L30.672 11.092H25.011V9.04002H32.994V11.092L28.548 22H26.208Z" fill="white"/>
</svg>
