<svg width="45" height="30" viewBox="0 0 45 30" fill="none" xmlns="http://www.w3.org/2000/svg">
<rect width="45" height="30" rx="5" fill="#C8D300"/>
<path d="M17.5817 8.78802C20.1197 8.78802 22.0637 10.732 22.0637 13.486V17.428C22.0637 20.371 20.1647 22.27 17.3387 22.27H14.7107V20.245H17.3387C18.8507 20.245 19.8497 19.039 19.8497 17.725V16.411C19.1387 17.023 18.2207 17.383 17.2667 17.383C14.8277 17.383 13.0907 15.574 13.0907 13.135C13.0907 10.705 15.1427 8.78802 17.5817 8.78802ZM15.2867 13.135C15.2867 14.395 16.3037 15.43 17.5637 15.43C18.8237 15.43 19.8497 14.395 19.8497 13.135C19.8497 11.911 18.8417 10.867 17.5817 10.867C16.3217 10.867 15.2867 11.875 15.2867 13.135Z" fill="#111111"/>
<path d="M28.7974 13.684C29.5894 13.684 30.3094 13.864 30.9574 14.233C32.2444 14.962 32.9644 16.303 32.9644 17.914C32.9644 18.679 32.7304 19.399 32.2534 20.074C31.3084 21.415 29.9674 22.27 28.4194 22.27C26.4394 22.27 24.7474 21.019 24.2164 19.057L26.3044 18.499C26.3224 18.589 26.4574 18.823 26.7184 19.201C27.2314 19.966 27.8524 20.191 28.5004 20.191C29.7784 20.191 30.7864 19.183 30.7864 17.914C30.7864 16.636 29.7874 15.646 28.5004 15.646C27.6634 15.646 27.2224 15.817 26.5114 16.492L24.6574 15.898L25.0534 9.04002H32.0914V11.074H26.9884L26.7814 14.269C27.3664 13.891 28.2664 13.684 28.7974 13.684Z" fill="#111111"/>
</svg>
