<svg width="45" height="30" viewBox="0 0 45 30" fill="none" xmlns="http://www.w3.org/2000/svg">
<rect width="45" height="30" rx="5" fill="#65C2C4"/>
<path d="M19.5419 22.27C16.9679 22.27 15.1229 20.578 15.1229 18.175C15.1229 16.933 15.6269 15.799 16.5899 15.043C15.8609 14.341 15.4559 13.477 15.4559 12.433C15.4559 10.21 17.1479 8.77002 19.5419 8.77002C21.9359 8.77002 23.6369 10.21 23.6369 12.433C23.6369 13.468 23.2679 14.323 22.5209 15.043C23.4659 15.781 23.9879 16.933 23.9879 18.175C23.9879 20.578 22.1249 22.27 19.5419 22.27ZM17.4179 18.175C17.4179 19.516 18.2729 20.227 19.5419 20.227C20.8199 20.227 21.6929 19.516 21.6929 18.175C21.6929 16.843 20.8199 16.114 19.5419 16.114C18.2639 16.114 17.4179 16.843 17.4179 18.175ZM17.7509 12.433C17.7509 13.531 18.4799 14.053 19.5419 14.053C20.6039 14.053 21.3419 13.531 21.3419 12.433C21.3419 11.344 20.6039 10.813 19.5419 10.813C18.4799 10.813 17.7509 11.344 17.7509 12.433Z" fill="white"/>
<path d="M30.7884 9.04002V22H28.5744V11.407L26.1444 12.892V10.498L28.5744 9.04002H30.7884Z" fill="white"/>
</svg>
