<svg width="45" height="30" viewBox="0 0 45 30" fill="none" xmlns="http://www.w3.org/2000/svg">
<rect width="45" height="30" rx="5" fill="#009640"/>
<path d="M12.9489 21.982V20.092L18.4929 15.151C19.3479 14.386 19.6449 13.711 19.6449 13.072C19.6449 11.776 18.7539 10.813 17.4669 10.813C16.1169 10.813 15.1629 11.866 15.1989 13.054H12.9669C12.9669 10.462 14.8299 8.77002 17.5119 8.77002C20.0049 8.77002 21.8679 10.561 21.8679 13.099C21.8679 14.953 21.1029 15.7 19.6269 16.996L16.3059 19.939H21.8679V21.982H12.9489Z" fill="white"/>
<path d="M28.5135 22.27C25.9755 22.27 24.0315 20.326 24.0315 17.572V13.63C24.0315 10.687 25.9305 8.78802 28.7565 8.78802H31.3845V10.813H28.7565C27.2445 10.813 26.2455 12.019 26.2455 13.333V14.647C26.9565 14.035 27.8745 13.675 28.8285 13.675C31.2675 13.675 33.0045 15.484 33.0045 17.923C33.0045 20.353 30.9525 22.27 28.5135 22.27ZM26.2455 17.923C26.2455 19.147 27.2535 20.191 28.5135 20.191C29.7735 20.191 30.8085 19.183 30.8085 17.923C30.8085 16.663 29.7915 15.628 28.5315 15.628C27.2715 15.628 26.2455 16.663 26.2455 17.923Z" fill="white"/>
</svg>
