<svg width="45" height="30" viewBox="0 0 45 30" fill="none" xmlns="http://www.w3.org/2000/svg">
<rect width="45" height="30" rx="5" fill="#FFED00"/>
<path d="M18.7426 22V19.858H13.0006V17.833L17.1496 9.04002H19.6246L15.4756 17.833H18.7426V14.458H20.9386V17.833H22.1536V19.858H20.9386V22H18.7426Z" fill="#111111"/>
<path d="M28.9738 22.27C26.2108 22.27 24.3118 20.371 24.3118 17.608V13.432C24.3118 10.669 26.2108 8.77002 28.9738 8.77002C31.7368 8.77002 33.6358 10.669 33.6358 13.432V17.608C33.6358 20.371 31.7368 22.27 28.9738 22.27ZM26.5258 17.761C26.5258 19.129 27.6058 20.209 28.9738 20.209C30.3418 20.209 31.4218 19.129 31.4218 17.761V13.27C31.4218 11.893 30.3418 10.813 28.9738 10.813C27.6058 10.813 26.5258 11.893 26.5258 13.27V17.761Z" fill="#111111"/>
</svg>
