<svg width="45" height="30" viewBox="0 0 45 30" fill="none" xmlns="http://www.w3.org/2000/svg">
<rect width="45" height="30" rx="5" fill="#FFED00"/>
<path d="M17.5644 22.27C14.9904 22.27 13.1454 20.578 13.1454 18.175C13.1454 16.933 13.6494 15.799 14.6124 15.043C13.8834 14.341 13.4784 13.477 13.4784 12.433C13.4784 10.21 15.1704 8.77002 17.5644 8.77002C19.9584 8.77002 21.6594 10.21 21.6594 12.433C21.6594 13.468 21.2904 14.323 20.5434 15.043C21.4884 15.781 22.0104 16.933 22.0104 18.175C22.0104 20.578 20.1474 22.27 17.5644 22.27ZM15.4404 18.175C15.4404 19.516 16.2954 20.227 17.5644 20.227C18.8424 20.227 19.7154 19.516 19.7154 18.175C19.7154 16.843 18.8424 16.114 17.5644 16.114C16.2864 16.114 15.4404 16.843 15.4404 18.175ZM15.7734 12.433C15.7734 13.531 16.5024 14.053 17.5644 14.053C18.6264 14.053 19.3644 13.531 19.3644 12.433C19.3644 11.344 18.6264 10.813 17.5644 10.813C16.5024 10.813 15.7734 11.344 15.7734 12.433Z" fill="#111111"/>
<path d="M29.0089 22.27C26.2459 22.27 24.3469 20.371 24.3469 17.608V13.432C24.3469 10.669 26.2459 8.77002 29.0089 8.77002C31.7719 8.77002 33.6709 10.669 33.6709 13.432V17.608C33.6709 20.371 31.7719 22.27 29.0089 22.27ZM26.5609 17.761C26.5609 19.129 27.6409 20.209 29.0089 20.209C30.3769 20.209 31.4569 19.129 31.4569 17.761V13.27C31.4569 11.893 30.3769 10.813 29.0089 10.813C27.6409 10.813 26.5609 11.893 26.5609 13.27V17.761Z" fill="#111111"/>
</svg>
