<svg width="45" height="30" viewBox="0 0 45 30" fill="none" xmlns="http://www.w3.org/2000/svg">
<rect width="45" height="30" rx="5" fill="#009640"/>
<path d="M21.4307 11.092L18.5147 13.909C19.2077 14.053 19.7837 14.323 20.2427 14.71C21.1607 15.493 21.6467 16.654 21.6467 17.95C21.6467 18.751 21.4487 19.471 21.0617 20.128C20.2697 21.433 18.7847 22.243 17.2277 22.243C15.1307 22.243 13.5017 20.974 12.9797 19.156L15.0767 18.589C15.3647 19.597 16.2197 20.191 17.2097 20.191C17.5787 20.191 17.9477 20.092 18.3257 19.894C19.0727 19.507 19.4417 18.679 19.4417 17.95C19.4417 17.545 19.3517 17.158 19.1627 16.807C18.7847 16.105 18.0917 15.691 17.2187 15.691C16.7777 15.691 16.4087 15.79 16.0937 15.997L15.1037 14.287L18.8387 11.083H13.4837V9.04002H21.5837L21.4307 11.092Z" fill="white"/>
<path d="M28.2177 22.27C25.6437 22.27 23.7987 20.578 23.7987 18.175C23.7987 16.933 24.3027 15.799 25.2657 15.043C24.5367 14.341 24.1317 13.477 24.1317 12.433C24.1317 10.21 25.8237 8.77002 28.2177 8.77002C30.6117 8.77002 32.3127 10.21 32.3127 12.433C32.3127 13.468 31.9437 14.323 31.1967 15.043C32.1417 15.781 32.6637 16.933 32.6637 18.175C32.6637 20.578 30.8007 22.27 28.2177 22.27ZM26.0937 18.175C26.0937 19.516 26.9487 20.227 28.2177 20.227C29.4957 20.227 30.3687 19.516 30.3687 18.175C30.3687 16.843 29.4957 16.114 28.2177 16.114C26.9397 16.114 26.0937 16.843 26.0937 18.175ZM26.4267 12.433C26.4267 13.531 27.1557 14.053 28.2177 14.053C29.2797 14.053 30.0177 13.531 30.0177 12.433C30.0177 11.344 29.2797 10.813 28.2177 10.813C27.1557 10.813 26.4267 11.344 26.4267 12.433Z" fill="white"/>
</svg>
