<svg width="66" height="44" viewBox="0 0 66 44" fill="none" xmlns="http://www.w3.org/2000/svg">
<g clip-path="url(#clip0_69_248)">
<path d="M58.6667 0H7.33333C3.28325 0 0 3.28325 0 7.33333V36.6667C0 40.7168 3.28325 44 7.33333 44H58.6667C62.7168 44 66 40.7168 66 36.6667V7.33333C66 3.28325 62.7168 0 58.6667 0Z" fill="white"/>
<path d="M15 32V13H18.195L26.942 26.3924V13H30.137V32H26.942L18.195 18.6076V32H15Z" fill="#1E3480"/>
<path d="M51 25.3627C50.1481 30.1887 46.9693 32 42.7607 32C37.2805 32 34 28.162 34 22.5C34 16.838 37.2805 13 42.7607 13C46.9693 13 50.3261 15.4193 51 19.6373H47.8975C47.1728 17.294 45.469 15.8753 42.7607 15.8753C39.0733 15.8753 37.2296 18.51 37.2169 22.5C37.2169 26.49 39.0733 29.1247 42.7607 29.1247C45.469 29.1247 47.1728 27.7187 47.8975 25.3627H51Z" fill="#1E3480"/>
</g>
<defs>
<clipPath id="clip0_69_248">
<rect width="66" height="44" fill="white"/>
</clipPath>
</defs>
</svg>
