<svg width="45" height="30" viewBox="0 0 45 30" fill="none" xmlns="http://www.w3.org/2000/svg">
<rect width="45" height="30" rx="5" fill="#C8D300"/>
<path d="M17.732 13.684C18.524 13.684 19.244 13.864 19.892 14.233C21.179 14.962 21.899 16.303 21.899 17.914C21.899 18.679 21.665 19.399 21.188 20.074C20.243 21.415 18.902 22.27 17.354 22.27C15.374 22.27 13.682 21.019 13.151 19.057L15.239 18.499C15.257 18.589 15.392 18.823 15.653 19.201C16.166 19.966 16.787 20.191 17.435 20.191C18.713 20.191 19.721 19.183 19.721 17.914C19.721 16.636 18.722 15.646 17.435 15.646C16.598 15.646 16.157 15.817 15.446 16.492L13.592 15.898L13.988 9.03998H21.026V11.074H15.923L15.716 14.269C16.301 13.891 17.201 13.684 17.732 13.684Z" fill="#111111"/>
<path d="M29.4399 22V19.858H23.6979V17.833L27.8469 9.03998H30.3219L26.1729 17.833H29.4399V14.458H31.6359V17.833H32.8509V19.858H31.6359V22H29.4399Z" fill="#111111"/>
</svg>
