<svg width="45" height="30" viewBox="0 0 45 30" fill="none" xmlns="http://www.w3.org/2000/svg">
<rect width="45" height="30" rx="5" fill="#C8D300"/>
<path d="M24.6297 17.554C24.0267 20.983 21.7767 22.27 18.7977 22.27C14.9187 22.27 12.5967 19.543 12.5967 15.52C12.5967 11.497 14.9187 8.77002 18.7977 8.77002C21.7767 8.77002 24.1527 10.489 24.6297 13.486H22.4337C21.9207 11.821 20.7147 10.813 18.7977 10.813C16.1877 10.813 14.8827 12.685 14.8737 15.52C14.8737 18.355 16.1877 20.227 18.7977 20.227C20.7147 20.227 21.9207 19.228 22.4337 17.554H24.6297Z" fill="#111111"/>
<path d="M27.2627 22L31.7267 11.092H26.0657V9.04002H34.0487V11.092L29.6027 22H27.2627Z" fill="#111111"/>
</svg>
