<svg width="45" height="30" viewBox="0 0 45 30" fill="none" xmlns="http://www.w3.org/2000/svg">
<rect width="45" height="30" rx="5" fill="#F7A600"/>
<path d="M17.7654 8.78802C20.3034 8.78802 22.2474 10.732 22.2474 13.486V17.428C22.2474 20.371 20.3484 22.27 17.5224 22.27H14.8944V20.245H17.5224C19.0344 20.245 20.0334 19.039 20.0334 17.725V16.411C19.3224 17.023 18.4044 17.383 17.4504 17.383C15.0114 17.383 13.2744 15.574 13.2744 13.135C13.2744 10.705 15.3264 8.78802 17.7654 8.78802ZM15.4704 13.135C15.4704 14.395 16.4874 15.43 17.7474 15.43C19.0074 15.43 20.0334 14.395 20.0334 13.135C20.0334 11.911 19.0254 10.867 17.7654 10.867C16.5054 10.867 15.4704 11.875 15.4704 13.135Z" fill="#111111"/>
<path d="M29.2421 22.27C26.7041 22.27 24.7601 20.326 24.7601 17.572V13.63C24.7601 10.687 26.6591 8.78802 29.4851 8.78802H32.1131V10.813H29.4851C27.9731 10.813 26.9741 12.019 26.9741 13.333V14.647C27.6851 14.035 28.6031 13.675 29.5571 13.675C31.9961 13.675 33.7331 15.484 33.7331 17.923C33.7331 20.353 31.6811 22.27 29.2421 22.27ZM26.9741 17.923C26.9741 19.147 27.9821 20.191 29.2421 20.191C30.5021 20.191 31.5371 19.183 31.5371 17.923C31.5371 16.663 30.5201 15.628 29.2601 15.628C28.0001 15.628 26.9741 16.663 26.9741 17.923Z" fill="#111111"/>
</svg>
