<svg width="45" height="30" viewBox="0 0 45 30" fill="none" xmlns="http://www.w3.org/2000/svg">
<g clip-path="url(#clip0_191_49)">
<path d="M40 0H5C2.23858 0 0 2.23858 0 5V25C0 27.7614 2.23858 30 5 30H40C42.7614 30 45 27.7614 45 25V5C45 2.23858 42.7614 0 40 0Z" fill="white"/>
<path d="M19.644 9V21.96H17.43V11.367L15 12.852V10.458L17.43 9H19.644Z" fill="black"/>
<path d="M26.6816 22H21.728V9.0784H26.72C28.3328 9.0784 29.5936 9.3984 30.5024 10.0384C31.424 10.6656 31.8848 11.5296 31.8848 12.6304C31.8848 13.3344 31.712 13.9296 31.3664 14.416C31.0336 14.9024 30.5728 15.2736 29.984 15.5296C29.408 15.7728 28.736 15.8944 27.968 15.8944V15.3568C28.7232 15.3568 29.408 15.4464 30.0224 15.6256C30.6368 15.8048 31.1232 16.1184 31.4816 16.5664C31.84 17.0016 32.0192 17.6096 32.0192 18.3904C32.0192 19.0176 31.8848 19.5616 31.616 20.0224C31.36 20.4832 30.9888 20.8608 30.5024 21.1552C30.0288 21.4368 29.4656 21.648 28.8128 21.7888C28.1728 21.9296 27.4624 22 26.6816 22ZM24.5312 16.7584V19.696H26.8352C27.1808 19.696 27.4944 19.6768 27.776 19.6384C28.0704 19.5872 28.32 19.5104 28.5248 19.408C28.7424 19.2928 28.9088 19.1392 29.024 18.9472C29.152 18.7424 29.216 18.4928 29.216 18.1984C29.216 17.648 29.0176 17.2704 28.6208 17.0656C28.224 16.8608 27.6352 16.7584 26.8544 16.7584H24.5312ZM24.5312 11.3824V14.4544H26.8544C27.6224 14.4544 28.1856 14.32 28.544 14.0512C28.9024 13.7824 29.0816 13.3856 29.0816 12.8608C29.0816 12.3744 28.8896 12.0096 28.5056 11.7664C28.1344 11.5104 27.5904 11.3824 26.8736 11.3824H24.5312Z" fill="black"/>
</g>
<defs>
<clipPath id="clip0_191_49">
<rect width="45" height="30" fill="white"/>
</clipPath>
</defs>
</svg>
