<svg width="45" height="30" viewBox="0 0 45 30" fill="none" xmlns="http://www.w3.org/2000/svg">
<rect width="45" height="30" rx="5" fill="#E8B975"/>
<path d="M15.3447 22L19.8087 11.092H14.1477V9.03998H22.1307V11.092L17.6847 22H15.3447Z" fill="#111111"/>
<path d="M28.5064 13.684C29.2984 13.684 30.0184 13.864 30.6664 14.233C31.9534 14.962 32.6734 16.303 32.6734 17.914C32.6734 18.679 32.4394 19.399 31.9624 20.074C31.0174 21.415 29.6764 22.27 28.1284 22.27C26.1484 22.27 24.4564 21.019 23.9254 19.057L26.0134 18.499C26.0314 18.589 26.1664 18.823 26.4274 19.201C26.9404 19.966 27.5614 20.191 28.2094 20.191C29.4874 20.191 30.4954 19.183 30.4954 17.914C30.4954 16.636 29.4964 15.646 28.2094 15.646C27.3724 15.646 26.9314 15.817 26.2204 16.492L24.3664 15.898L24.7624 9.03998H31.8004V11.074H26.6974L26.4904 14.269C27.0754 13.891 27.9754 13.684 28.5064 13.684Z" fill="#111111"/>
</svg>
