<svg width="45" height="30" viewBox="0 0 45 30" fill="none" xmlns="http://www.w3.org/2000/svg">
<rect width="45" height="30" rx="5" fill="#76B82A"/>
<path d="M23.6287 17.554C23.0257 20.983 20.7757 22.27 17.7967 22.27C13.9177 22.27 11.5957 19.543 11.5957 15.52C11.5957 11.497 13.9177 8.77002 17.7967 8.77002C20.7757 8.77002 23.1517 10.489 23.6287 13.486H21.4327C20.9197 11.821 19.7137 10.813 17.7967 10.813C15.1867 10.813 13.8817 12.685 13.8727 15.52C13.8727 18.355 15.1867 20.227 17.7967 20.227C19.7137 20.227 20.9197 19.228 21.4327 17.554H23.6287Z" fill="white"/>
<path d="M30.6352 22V19.858H24.8932V17.833L29.0422 9.04002H31.5172L27.3682 17.833H30.6352V14.458H32.8312V17.833H34.0462V19.858H32.8312V22H30.6352Z" fill="white"/>
</svg>
