<svg width="45" height="30" viewBox="0 0 45 30" fill="none" xmlns="http://www.w3.org/2000/svg">
<rect width="45" height="30" rx="5" fill="#F5B5D3"/>
<path d="M17.6177 13.684C18.4097 13.684 19.1297 13.864 19.7777 14.233C21.0647 14.962 21.7847 16.303 21.7847 17.914C21.7847 18.679 21.5507 19.399 21.0737 20.074C20.1287 21.415 18.7877 22.27 17.2397 22.27C15.2597 22.27 13.5677 21.019 13.0367 19.057L15.1247 18.499C15.1427 18.589 15.2777 18.823 15.5387 19.201C16.0517 19.966 16.6727 20.191 17.3207 20.191C18.5987 20.191 19.6067 19.183 19.6067 17.914C19.6067 16.636 18.6077 15.646 17.3207 15.646C16.4837 15.646 16.0427 15.817 15.3317 16.492L13.4777 15.898L13.8737 9.04002H20.9117V11.074H15.8087L15.6017 14.269C16.1867 13.891 17.0867 13.684 17.6177 13.684Z" fill="#111111"/>
<path d="M28.1286 8.78802C30.6666 8.78802 32.6106 10.732 32.6106 13.486V17.428C32.6106 20.371 30.7116 22.27 27.8856 22.27H25.2576V20.245H27.8856C29.3976 20.245 30.3966 19.039 30.3966 17.725V16.411C29.6856 17.023 28.7676 17.383 27.8136 17.383C25.3746 17.383 23.6376 15.574 23.6376 13.135C23.6376 10.705 25.6896 8.78802 28.1286 8.78802ZM25.8336 13.135C25.8336 14.395 26.8506 15.43 28.1106 15.43C29.3706 15.43 30.3966 14.395 30.3966 13.135C30.3966 11.911 29.3886 10.867 28.1286 10.867C26.8686 10.867 25.8336 11.875 25.8336 13.135Z" fill="#111111"/>
</svg>
