<svg width="45" height="30" viewBox="0 0 45 30" fill="none" xmlns="http://www.w3.org/2000/svg">
<rect width="45" height="30" rx="5" fill="#EE7402"/>
<path d="M24.0672 17.554C23.4642 20.983 21.2142 22.27 18.2352 22.27C14.3562 22.27 12.0342 19.543 12.0342 15.52C12.0342 11.497 14.3562 8.77002 18.2352 8.77002C21.2142 8.77002 23.5902 10.489 24.0672 13.486H21.8712C21.3582 11.821 20.1522 10.813 18.2352 10.813C15.6252 10.813 14.3202 12.685 14.3112 15.52C14.3112 18.355 15.6252 20.227 18.2352 20.227C20.1522 20.227 21.3582 19.228 21.8712 17.554H24.0672Z" fill="white"/>
<path d="M25.6832 21.982V20.092L31.2272 15.151C32.0822 14.386 32.3792 13.711 32.3792 13.072C32.3792 11.776 31.4882 10.813 30.2012 10.813C28.8512 10.813 27.8972 11.866 27.9332 13.054H25.7012C25.7012 10.462 27.5642 8.77002 30.2462 8.77002C32.7392 8.77002 34.6022 10.561 34.6022 13.099C34.6022 14.953 33.8372 15.7 32.3612 16.996L29.0402 19.939H34.6022V21.982H25.6832Z" fill="white"/>
</svg>
