<svg width="45" height="30" viewBox="0 0 45 30" fill="none" xmlns="http://www.w3.org/2000/svg">
<g clip-path="url(#clip0_191_56)">
<path d="M40 0H5C2.23858 0 0 2.23858 0 5V25C0 27.7614 2.23858 30 5 30H40C42.7614 30 45 27.7614 45 25V5C45 2.23858 42.7614 0 40 0Z" fill="white"/>
<path d="M27.6816 22H22.728V9.0784H27.72C29.3328 9.0784 30.5936 9.3984 31.5024 10.0384C32.424 10.6656 32.8848 11.5296 32.8848 12.6304C32.8848 13.3344 32.712 13.9296 32.3664 14.416C32.0336 14.9024 31.5728 15.2736 30.984 15.5296C30.408 15.7728 29.736 15.8944 28.968 15.8944V15.3568C29.7232 15.3568 30.408 15.4464 31.0224 15.6256C31.6368 15.8048 32.1232 16.1184 32.4816 16.5664C32.84 17.0016 33.0192 17.6096 33.0192 18.3904C33.0192 19.0176 32.8848 19.5616 32.616 20.0224C32.36 20.4832 31.9888 20.8608 31.5024 21.1552C31.0288 21.4368 30.4656 21.648 29.8128 21.7888C29.1728 21.9296 28.4624 22 27.6816 22ZM25.5312 16.7584V19.696H27.8352C28.1808 19.696 28.4944 19.6768 28.776 19.6384C29.0704 19.5872 29.32 19.5104 29.5248 19.408C29.7424 19.2928 29.9088 19.1392 30.024 18.9472C30.152 18.7424 30.216 18.4928 30.216 18.1984C30.216 17.648 30.0176 17.2704 29.6208 17.0656C29.224 16.8608 28.6352 16.7584 27.8544 16.7584H25.5312ZM25.5312 11.3824V14.4544H27.8544C28.6224 14.4544 29.1856 14.32 29.544 14.0512C29.9024 13.7824 30.0816 13.3856 30.0816 12.8608C30.0816 12.3744 29.8896 12.0096 29.5056 11.7664C29.1344 11.5104 28.5904 11.3824 27.8736 11.3824H25.5312Z" fill="black"/>
<path d="M12 22.212V20.322L17.544 15.381C18.399 14.616 18.696 13.941 18.696 13.302C18.696 12.006 17.805 11.043 16.518 11.043C15.168 11.043 14.214 12.096 14.25 13.284H12.018C12.018 10.692 13.881 9 16.563 9C19.056 9 20.919 10.791 20.919 13.329C20.919 15.183 20.154 15.93 18.678 17.226L15.357 20.169H20.919V22.212H12Z" fill="black"/>
</g>
<defs>
<clipPath id="clip0_191_56">
<rect width="45" height="30" fill="white"/>
</clipPath>
</defs>
</svg>
