<svg width="45" height="30" viewBox="0 0 45 30" fill="none" xmlns="http://www.w3.org/2000/svg">
<rect width="45" height="30" rx="5" fill="#FFED00"/>
<path d="M17.6434 17.554C17.0404 20.983 14.7904 22.27 11.8114 22.27C7.93235 22.27 5.61035 19.543 5.61035 15.52C5.61035 11.497 7.93235 8.77002 11.8114 8.77002C14.7904 8.77002 17.1664 10.489 17.6434 13.486H15.4474C14.9344 11.821 13.7284 10.813 11.8114 10.813C9.20135 10.813 7.89635 12.685 7.88735 15.52C7.88735 18.355 9.20135 20.227 11.8114 20.227C13.7284 20.227 14.9344 19.228 15.4474 17.554H17.6434Z" fill="#111111"/>
<path d="M19.2594 21.982V20.092L24.8034 15.151C25.6584 14.386 25.9554 13.711 25.9554 13.072C25.9554 11.776 25.0644 10.813 23.7774 10.813C22.4274 10.813 21.4734 11.866 21.5094 13.054H19.2774C19.2774 10.462 21.1404 8.77002 23.8224 8.77002C26.3154 8.77002 28.1784 10.561 28.1784 13.099C28.1784 14.953 27.4134 15.7 25.9374 16.996L22.6164 19.939H28.1784V21.982H19.2594Z" fill="#111111"/>
<path d="M35.0041 22.27C32.2411 22.27 30.3421 20.371 30.3421 17.608V13.432C30.3421 10.669 32.2411 8.77002 35.0041 8.77002C37.7671 8.77002 39.6661 10.669 39.6661 13.432V17.608C39.6661 20.371 37.7671 22.27 35.0041 22.27ZM32.5561 17.761C32.5561 19.129 33.6361 20.209 35.0041 20.209C36.3721 20.209 37.4521 19.129 37.4521 17.761V13.27C37.4521 11.893 36.3721 10.813 35.0041 10.813C33.6361 10.813 32.5561 11.893 32.5561 13.27V17.761Z" fill="#111111"/>
</svg>
