<svg width="45" height="30" viewBox="0 0 45 30" fill="none" xmlns="http://www.w3.org/2000/svg">
<rect width="45" height="30" rx="5" fill="#A1DAF8"/>
<path d="M19.9165 9.04002V22H17.7025V11.407L15.2725 12.892V10.498L17.7025 9.04002H19.9165Z" fill="#111111"/>
<path d="M22.985 21.982V20.092L28.529 15.151C29.384 14.386 29.681 13.711 29.681 13.072C29.681 11.776 28.79 10.813 27.503 10.813C26.153 10.813 25.199 11.866 25.235 13.054H23.003C23.003 10.462 24.866 8.77002 27.548 8.77002C30.041 8.77002 31.904 10.561 31.904 13.099C31.904 14.953 31.139 15.7 29.663 16.996L26.342 19.939H31.904V21.982H22.985Z" fill="#111111"/>
</svg>
