<svg width="45" height="30" viewBox="0 0 45 30" fill="none" xmlns="http://www.w3.org/2000/svg">
<rect width="45" height="30" rx="5" fill="#FFED00"/>
<path d="M18.854 9.04002V22H16.64V11.407L14.21 12.892V10.498L16.64 9.04002H18.854Z" fill="#111111"/>
<path d="M26.9445 22.27C24.1815 22.27 22.2825 20.371 22.2825 17.608V13.432C22.2825 10.669 24.1815 8.77002 26.9445 8.77002C29.7075 8.77002 31.6065 10.669 31.6065 13.432V17.608C31.6065 20.371 29.7075 22.27 26.9445 22.27ZM24.4965 17.761C24.4965 19.129 25.5765 20.209 26.9445 20.209C28.3125 20.209 29.3925 19.129 29.3925 17.761V13.27C29.3925 11.893 28.3125 10.813 26.9445 10.813C25.5765 10.813 24.4965 11.893 24.4965 13.27V17.761Z" fill="#111111"/>
</svg>
