<svg width="45" height="30" viewBox="0 0 45 30" fill="none" xmlns="http://www.w3.org/2000/svg">
<rect width="45" height="30" rx="5" fill="#0BBBEF"/>
<path d="M13.3092 21.982V20.092L18.8532 15.151C19.7082 14.386 20.0052 13.711 20.0052 13.072C20.0052 11.776 19.1142 10.813 17.8272 10.813C16.4772 10.813 15.5232 11.866 15.5592 13.054H13.3272C13.3272 10.462 15.1902 8.77002 17.8722 8.77002C20.3652 8.77002 22.2282 10.561 22.2282 13.099C22.2282 14.953 21.4632 15.7 19.9872 16.996L16.6662 19.939H22.2282V21.982H13.3092Z" fill="white"/>
<path d="M32.3029 11.092L29.3869 13.909C30.0799 14.053 30.6559 14.323 31.1149 14.71C32.0329 15.493 32.5189 16.654 32.5189 17.95C32.5189 18.751 32.3209 19.471 31.9339 20.128C31.1419 21.433 29.6569 22.243 28.0999 22.243C26.0029 22.243 24.3739 20.974 23.8519 19.156L25.9489 18.589C26.2369 19.597 27.0919 20.191 28.0819 20.191C28.4509 20.191 28.8199 20.092 29.1979 19.894C29.9449 19.507 30.3139 18.679 30.3139 17.95C30.3139 17.545 30.2239 17.158 30.0349 16.807C29.6569 16.105 28.9639 15.691 28.0909 15.691C27.6499 15.691 27.2809 15.79 26.9659 15.997L25.9759 14.287L29.7109 11.083H24.3559V9.04002H32.4559L32.3029 11.092Z" fill="white"/>
</svg>
