<svg width="45" height="30" viewBox="0 0 45 30" fill="none" xmlns="http://www.w3.org/2000/svg">
<rect width="45" height="30" rx="5" fill="#65C2C4"/>
<path d="M21.3516 11.092L18.4356 13.909C19.1286 14.053 19.7046 14.323 20.1636 14.71C21.0816 15.493 21.5676 16.654 21.5676 17.95C21.5676 18.751 21.3696 19.471 20.9826 20.128C20.1906 21.433 18.7056 22.243 17.1486 22.243C15.0516 22.243 13.4226 20.974 12.9006 19.156L14.9976 18.589C15.2856 19.597 16.1406 20.191 17.1306 20.191C17.4996 20.191 17.8686 20.092 18.2466 19.894C18.9936 19.507 19.3626 18.679 19.3626 17.95C19.3626 17.545 19.2726 17.158 19.0836 16.807C18.7056 16.105 18.0126 15.691 17.1396 15.691C16.6986 15.691 16.3296 15.79 16.0146 15.997L15.0246 14.287L18.7596 11.083H13.4046V9.04002H21.5046L21.3516 11.092Z" fill="white"/>
<path d="M28.3816 22.27C25.8436 22.27 23.8996 20.326 23.8996 17.572V13.63C23.8996 10.687 25.7986 8.78802 28.6246 8.78802H31.2526V10.813H28.6246C27.1126 10.813 26.1136 12.019 26.1136 13.333V14.647C26.8246 14.035 27.7426 13.675 28.6966 13.675C31.1356 13.675 32.8726 15.484 32.8726 17.923C32.8726 20.353 30.8206 22.27 28.3816 22.27ZM26.1136 17.923C26.1136 19.147 27.1216 20.191 28.3816 20.191C29.6416 20.191 30.6766 19.183 30.6766 17.923C30.6766 16.663 29.6596 15.628 28.3996 15.628C27.1396 15.628 26.1136 16.663 26.1136 17.923Z" fill="white"/>
</svg>
