<svg width="45" height="30" viewBox="0 0 45 30" fill="none" xmlns="http://www.w3.org/2000/svg">
<rect width="45" height="30" rx="5" fill="#F7A600"/>
<path d="M17.8445 8.78802C20.3825 8.78802 22.3265 10.732 22.3265 13.486V17.428C22.3265 20.371 20.4275 22.27 17.6015 22.27H14.9735V20.245H17.6015C19.1135 20.245 20.1125 19.039 20.1125 17.725V16.411C19.4015 17.023 18.4835 17.383 17.5295 17.383C15.0905 17.383 13.3535 15.574 13.3535 13.135C13.3535 10.705 15.4055 8.78802 17.8445 8.78802ZM15.5495 13.135C15.5495 14.395 16.5665 15.43 17.8265 15.43C19.0865 15.43 20.1125 14.395 20.1125 13.135C20.1125 11.911 19.1045 10.867 17.8445 10.867C16.5845 10.867 15.5495 11.875 15.5495 13.135Z" fill="#111111"/>
<path d="M29.0782 22.27C26.5042 22.27 24.6592 20.578 24.6592 18.175C24.6592 16.933 25.1632 15.799 26.1262 15.043C25.3972 14.341 24.9922 13.477 24.9922 12.433C24.9922 10.21 26.6842 8.77002 29.0782 8.77002C31.4722 8.77002 33.1732 10.21 33.1732 12.433C33.1732 13.468 32.8042 14.323 32.0572 15.043C33.0022 15.781 33.5242 16.933 33.5242 18.175C33.5242 20.578 31.6612 22.27 29.0782 22.27ZM26.9542 18.175C26.9542 19.516 27.8092 20.227 29.0782 20.227C30.3562 20.227 31.2292 19.516 31.2292 18.175C31.2292 16.843 30.3562 16.114 29.0782 16.114C27.8002 16.114 26.9542 16.843 26.9542 18.175ZM27.2872 12.433C27.2872 13.531 28.0162 14.053 29.0782 14.053C30.1402 14.053 30.8782 13.531 30.8782 12.433C30.8782 11.344 30.1402 10.813 29.0782 10.813C28.0162 10.813 27.2872 11.344 27.2872 12.433Z" fill="#111111"/>
</svg>
