<svg width="45" height="30" viewBox="0 0 45 30" fill="none" xmlns="http://www.w3.org/2000/svg">
<rect width="45" height="30" rx="5" fill="#F5B5D3"/>
<path d="M15.0283 22L19.4923 11.092H13.8313V9.04002H21.8143V11.092L17.3683 22H15.0283Z" fill="#111111"/>
<path d="M28.154 8.78802C30.692 8.78802 32.636 10.732 32.636 13.486V17.428C32.636 20.371 30.737 22.27 27.911 22.27H25.283V20.245H27.911C29.423 20.245 30.422 19.039 30.422 17.725V16.411C29.711 17.023 28.793 17.383 27.839 17.383C25.4 17.383 23.663 15.574 23.663 13.135C23.663 10.705 25.715 8.78802 28.154 8.78802ZM25.859 13.135C25.859 14.395 26.876 15.43 28.136 15.43C29.396 15.43 30.422 14.395 30.422 13.135C30.422 11.911 29.414 10.867 28.154 10.867C26.894 10.867 25.859 11.875 25.859 13.135Z" fill="#111111"/>
</svg>
