<svg width="45" height="30" viewBox="0 0 45 30" fill="none" xmlns="http://www.w3.org/2000/svg">
<rect width="45" height="30" rx="5" fill="#A1DAF8"/>
<path d="M13.028 21.982V20.092L18.572 15.151C19.427 14.386 19.724 13.711 19.724 13.072C19.724 11.776 18.833 10.813 17.546 10.813C16.196 10.813 15.242 11.866 15.278 13.054H13.046C13.046 10.462 14.909 8.77002 17.591 8.77002C20.084 8.77002 21.947 10.561 21.947 13.099C21.947 14.953 21.182 15.7 19.706 16.996L16.385 19.939H21.947V21.982H13.028Z" fill="#111111"/>
<path d="M28.3496 22.27C25.7756 22.27 23.9306 20.578 23.9306 18.175C23.9306 16.933 24.4346 15.799 25.3976 15.043C24.6686 14.341 24.2636 13.477 24.2636 12.433C24.2636 10.21 25.9556 8.77002 28.3496 8.77002C30.7436 8.77002 32.4446 10.21 32.4446 12.433C32.4446 13.468 32.0756 14.323 31.3286 15.043C32.2736 15.781 32.7956 16.933 32.7956 18.175C32.7956 20.578 30.9326 22.27 28.3496 22.27ZM26.2256 18.175C26.2256 19.516 27.0806 20.227 28.3496 20.227C29.6276 20.227 30.5006 19.516 30.5006 18.175C30.5006 16.843 29.6276 16.114 28.3496 16.114C27.0716 16.114 26.2256 16.843 26.2256 18.175ZM26.5586 12.433C26.5586 13.531 27.2876 14.053 28.3496 14.053C29.4116 14.053 30.1496 13.531 30.1496 12.433C30.1496 11.344 29.4116 10.813 28.3496 10.813C27.2876 10.813 26.5586 11.344 26.5586 12.433Z" fill="#111111"/>
</svg>
