<svg width="45" height="30" viewBox="0 0 45 30" fill="none" xmlns="http://www.w3.org/2000/svg">
<rect width="45" height="30" rx="5" fill="#A1DAF8"/>
<path d="M14.2399 21.982V20.092L19.7839 15.151C20.6389 14.386 20.9359 13.711 20.9359 13.072C20.9359 11.776 20.0449 10.813 18.7579 10.813C17.4079 10.813 16.4539 11.866 16.4899 13.054H14.2579C14.2579 10.462 16.1209 8.77002 18.8029 8.77002C21.2959 8.77002 23.1589 10.561 23.1589 13.099C23.1589 14.953 22.3939 15.7 20.9179 16.996L17.5969 19.939H23.1589V21.982H14.2399Z" fill="#111111"/>
<path d="M25.9795 22L30.4435 11.092H24.7825V9.04002H32.7655V11.092L28.3195 22H25.9795Z" fill="#111111"/>
</svg>
