<svg width="45" height="30" viewBox="0 0 45 30" fill="none" xmlns="http://www.w3.org/2000/svg">
<rect width="45" height="30" rx="5" fill="#2581C4"/>
<path d="M27.4415 11.092L24.5255 13.909C25.2185 14.053 25.7945 14.323 26.2535 14.71C27.1715 15.493 27.6575 16.654 27.6575 17.95C27.6575 18.751 27.4595 19.471 27.0725 20.128C26.2805 21.433 24.7955 22.243 23.2385 22.243C21.1415 22.243 19.5125 20.974 18.9905 19.156L21.0875 18.589C21.3755 19.597 22.2305 20.191 23.2205 20.191C23.5895 20.191 23.9585 20.092 24.3365 19.894C25.0835 19.507 25.4525 18.679 25.4525 17.95C25.4525 17.545 25.3625 17.158 25.1735 16.807C24.7955 16.105 24.1025 15.691 23.2295 15.691C22.7885 15.691 22.4195 15.79 22.1045 15.997L21.1145 14.287L24.8495 11.083H19.4945V9.03998H27.5945L27.4415 11.092Z" fill="white"/>
</svg>
