<svg width="45" height="30" viewBox="0 0 45 30" fill="none" xmlns="http://www.w3.org/2000/svg">
<rect width="45" height="30" rx="5" fill="#A877B2"/>
<path d="M17.9775 22.27C15.4035 22.27 13.5585 20.578 13.5585 18.175C13.5585 16.933 14.0625 15.799 15.0255 15.043C14.2965 14.341 13.8915 13.477 13.8915 12.433C13.8915 10.21 15.5835 8.77002 17.9775 8.77002C20.3715 8.77002 22.0725 10.21 22.0725 12.433C22.0725 13.468 21.7035 14.323 20.9565 15.043C21.9015 15.781 22.4235 16.933 22.4235 18.175C22.4235 20.578 20.5605 22.27 17.9775 22.27ZM15.8535 18.175C15.8535 19.516 16.7085 20.227 17.9775 20.227C19.2555 20.227 20.1285 19.516 20.1285 18.175C20.1285 16.843 19.2555 16.114 17.9775 16.114C16.6995 16.114 15.8535 16.843 15.8535 18.175ZM16.1865 12.433C16.1865 13.531 16.9155 14.053 17.9775 14.053C19.0395 14.053 19.7775 13.531 19.7775 12.433C19.7775 11.344 19.0395 10.813 17.9775 10.813C16.9155 10.813 16.1865 11.344 16.1865 12.433Z" fill="white"/>
<path d="M28.999 22.27C26.425 22.27 24.58 20.578 24.58 18.175C24.58 16.933 25.084 15.799 26.047 15.043C25.318 14.341 24.913 13.477 24.913 12.433C24.913 10.21 26.605 8.77002 28.999 8.77002C31.393 8.77002 33.094 10.21 33.094 12.433C33.094 13.468 32.725 14.323 31.978 15.043C32.923 15.781 33.445 16.933 33.445 18.175C33.445 20.578 31.582 22.27 28.999 22.27ZM26.875 18.175C26.875 19.516 27.73 20.227 28.999 20.227C30.277 20.227 31.15 19.516 31.15 18.175C31.15 16.843 30.277 16.114 28.999 16.114C27.721 16.114 26.875 16.843 26.875 18.175ZM27.208 12.433C27.208 13.531 27.937 14.053 28.999 14.053C30.061 14.053 30.799 13.531 30.799 12.433C30.799 11.344 30.061 10.813 28.999 10.813C27.937 10.813 27.208 11.344 27.208 12.433Z" fill="white"/>
</svg>
