<svg width="45" height="30" viewBox="0 0 45 30" fill="none" xmlns="http://www.w3.org/2000/svg">
<g clip-path="url(#clip0_191_95)">
<path d="M40 0H5C2.23858 0 0 2.23858 0 5V25C0 27.7614 2.23858 30 5 30H40C42.7614 30 45 27.7614 45 25V5C45 2.23858 42.7614 0 40 0Z" fill="#2581C4"/>
<path d="M5.56552 21H2.89672V9.8448C2.89672 9.4224 2.98632 9.0576 3.16552 8.7504C3.35752 8.4432 3.60712 8.2128 3.91432 8.0592C4.22152 7.8928 4.54792 7.8096 4.89352 7.8096C5.31592 7.8096 5.69352 7.8928 6.02632 8.0592C6.35912 8.2128 6.62792 8.4688 6.83272 8.8272L12.3431 18.2736C12.2919 18.2352 12.2471 18.216 12.2087 18.216C12.1703 18.2032 12.1383 18.1968 12.1127 18.1968C12.0743 18.1968 12.0359 18.216 11.9975 18.2544C11.9591 18.2928 11.9399 18.3504 11.9399 18.4272V8.0784H14.5895V19.2336C14.5895 19.6688 14.4935 20.04 14.3015 20.3472C14.1223 20.6416 13.8791 20.8656 13.5719 21.0192C13.2775 21.1728 12.9639 21.2496 12.6311 21.2496C12.2215 21.2496 11.8439 21.1664 11.4983 21C11.1527 20.8464 10.8775 20.5968 10.6727 20.2512L5.21992 10.8432C5.25832 10.8688 5.29032 10.888 5.31592 10.9008C5.35432 10.9008 5.39272 10.9008 5.43112 10.9008C5.46952 10.9008 5.50152 10.8816 5.52712 10.8432C5.55272 10.8048 5.56552 10.7536 5.56552 10.6896V21ZM23.5822 21.2688C22.635 21.2688 21.7518 21.096 20.9326 20.7504C20.1262 20.4048 19.4158 19.9248 18.8014 19.3104C18.1998 18.696 17.7262 17.9856 17.3806 17.1792C17.0478 16.36 16.8814 15.4832 16.8814 14.5488C16.8814 13.6144 17.0478 12.744 17.3806 11.9376C17.7134 11.1184 18.1806 10.408 18.7822 9.8064C19.3966 9.192 20.1134 8.712 20.9326 8.3664C21.7518 8.0208 22.635 7.848 23.5822 7.848C24.3118 7.848 25.0286 7.9696 25.7326 8.2128C26.4366 8.456 27.0638 8.8144 27.6142 9.288C28.1774 9.7488 28.619 10.3312 28.939 11.0352L26.6542 12.3216C26.4366 11.9376 26.1742 11.6112 25.867 11.3424C25.5726 11.0608 25.227 10.8496 24.8302 10.7088C24.4334 10.5552 23.979 10.4784 23.467 10.4784C22.9166 10.4784 22.4174 10.5872 21.9694 10.8048C21.5214 11.0096 21.131 11.2976 20.7982 11.6688C20.4654 12.0272 20.2094 12.456 20.0302 12.9552C19.851 13.4544 19.7614 13.9984 19.7614 14.5872C19.7614 15.1888 19.851 15.7456 20.0302 16.2576C20.2222 16.7568 20.4846 17.192 20.8174 17.5632C21.1502 17.9344 21.5534 18.2224 22.027 18.4272C22.5006 18.6192 23.019 18.7152 23.5822 18.7152C24.0046 18.7152 24.3886 18.6768 24.7342 18.6C25.0798 18.5232 25.387 18.4208 25.6558 18.2928C25.9374 18.152 26.1742 17.9792 26.3662 17.7744L26.347 14.9136H29.0734V18.7152C28.7662 19.1888 28.3438 19.6176 27.8062 20.0016C27.2686 20.3856 26.6414 20.6928 25.9246 20.9232C25.2078 21.1536 24.427 21.2688 23.5822 21.2688ZM37.3259 21.2688C36.3787 21.2688 35.4955 21.096 34.6763 20.7504C33.8699 20.4048 33.1595 19.9248 32.5451 19.3104C31.9435 18.696 31.4699 17.9856 31.1243 17.1792C30.7915 16.36 30.6251 15.4832 30.6251 14.5488C30.6251 13.6144 30.7915 12.744 31.1243 11.9376C31.4571 11.1184 31.9243 10.408 32.5259 9.8064C33.1403 9.192 33.8571 8.712 34.6763 8.3664C35.4955 8.0208 36.3787 7.848 37.3259 7.848C38.0555 7.848 38.7723 7.9696 39.4763 8.2128C40.1803 8.456 40.8075 8.8144 41.3579 9.288C41.9211 9.7488 42.3627 10.3312 42.6827 11.0352L40.3979 12.3216C40.1803 11.9376 39.9179 11.6112 39.6107 11.3424C39.3163 11.0608 38.9707 10.8496 38.5739 10.7088C38.1771 10.5552 37.7227 10.4784 37.2107 10.4784C36.6603 10.4784 36.1611 10.5872 35.7131 10.8048C35.2651 11.0096 34.8747 11.2976 34.5419 11.6688C34.2091 12.0272 33.9531 12.456 33.7739 12.9552C33.5947 13.4544 33.5051 13.9984 33.5051 14.5872C33.5051 15.1888 33.5947 15.7456 33.7739 16.2576C33.9659 16.7568 34.2283 17.192 34.5611 17.5632C34.8939 17.9344 35.2971 18.2224 35.7707 18.4272C36.2443 18.6192 36.7627 18.7152 37.3259 18.7152C37.7483 18.7152 38.1323 18.6768 38.4779 18.6C38.8235 18.5232 39.1307 18.4208 39.3995 18.2928C39.6811 18.152 39.9179 17.9792 40.1099 17.7744L40.0907 14.9136H42.8171V18.7152C42.5099 19.1888 42.0875 19.6176 41.5499 20.0016C41.0123 20.3856 40.3851 20.6928 39.6683 20.9232C38.9515 21.1536 38.1707 21.2688 37.3259 21.2688Z" fill="white"/>
</g>
<defs>
<clipPath id="clip0_191_95">
<rect width="45" height="30" fill="white"/>
</clipPath>
</defs>
</svg>
