<svg width="45" height="30" viewBox="0 0 45 30" fill="none" xmlns="http://www.w3.org/2000/svg">
<rect width="45" height="30" rx="5" fill="#0BBBEF"/>
<path d="M17.8984 22.27C15.3244 22.27 13.4794 20.578 13.4794 18.175C13.4794 16.933 13.9834 15.799 14.9464 15.043C14.2174 14.341 13.8124 13.477 13.8124 12.433C13.8124 10.21 15.5044 8.77002 17.8984 8.77002C20.2924 8.77002 21.9934 10.21 21.9934 12.433C21.9934 13.468 21.6244 14.323 20.8774 15.043C21.8224 15.781 22.3444 16.933 22.3444 18.175C22.3444 20.578 20.4814 22.27 17.8984 22.27ZM15.7744 18.175C15.7744 19.516 16.6294 20.227 17.8984 20.227C19.1764 20.227 20.0494 19.516 20.0494 18.175C20.0494 16.843 19.1764 16.114 17.8984 16.114C16.6204 16.114 15.7744 16.843 15.7744 18.175ZM16.1074 12.433C16.1074 13.531 16.8364 14.053 17.8984 14.053C18.9604 14.053 19.6984 13.531 19.6984 12.433C19.6984 11.344 18.9604 10.813 17.8984 10.813C16.8364 10.813 16.1074 11.344 16.1074 12.433Z" fill="white"/>
<path d="M29.1629 22.27C26.6249 22.27 24.6809 20.326 24.6809 17.572V13.63C24.6809 10.687 26.5799 8.78802 29.4059 8.78802H32.0339V10.813H29.4059C27.8939 10.813 26.8949 12.019 26.8949 13.333V14.647C27.6059 14.035 28.5239 13.675 29.4779 13.675C31.9169 13.675 33.6539 15.484 33.6539 17.923C33.6539 20.353 31.6019 22.27 29.1629 22.27ZM26.8949 17.923C26.8949 19.147 27.9029 20.191 29.1629 20.191C30.4229 20.191 31.4579 19.183 31.4579 17.923C31.4579 16.663 30.4409 15.628 29.1809 15.628C27.9209 15.628 26.8949 16.663 26.8949 17.923Z" fill="white"/>
</svg>
