<svg width="45" height="30" viewBox="0 0 45 30" fill="none" xmlns="http://www.w3.org/2000/svg">
<rect width="45" height="30" rx="5" fill="#65C2C4"/>
<path d="M17.6258 8.78802C20.1638 8.78802 22.1078 10.732 22.1078 13.486V17.428C22.1078 20.371 20.2088 22.27 17.3828 22.27H14.7548V20.245H17.3828C18.8948 20.245 19.8938 19.039 19.8938 17.725V16.411C19.1828 17.023 18.2648 17.383 17.3108 17.383C14.8718 17.383 13.1348 15.574 13.1348 13.135C13.1348 10.705 15.1868 8.78802 17.6258 8.78802ZM15.3308 13.135C15.3308 14.395 16.3478 15.43 17.6078 15.43C18.8678 15.43 19.8938 14.395 19.8938 13.135C19.8938 11.911 18.8858 10.867 17.6258 10.867C16.3658 10.867 15.3308 11.875 15.3308 13.135Z" fill="white"/>
<path d="M32.5315 11.092L29.6155 13.909C30.3085 14.053 30.8845 14.323 31.3435 14.71C32.2615 15.493 32.7475 16.654 32.7475 17.95C32.7475 18.751 32.5495 19.471 32.1625 20.128C31.3705 21.433 29.8855 22.243 28.3285 22.243C26.2315 22.243 24.6025 20.974 24.0805 19.156L26.1775 18.589C26.4655 19.597 27.3205 20.191 28.3105 20.191C28.6795 20.191 29.0485 20.092 29.4265 19.894C30.1735 19.507 30.5425 18.679 30.5425 17.95C30.5425 17.545 30.4525 17.158 30.2635 16.807C29.8855 16.105 29.1925 15.691 28.3195 15.691C27.8785 15.691 27.5095 15.79 27.1945 15.997L26.2045 14.287L29.9395 11.083H24.5845V9.04002H32.6845L32.5315 11.092Z" fill="white"/>
</svg>
