<svg width="45" height="30" viewBox="0 0 45 30" fill="none" xmlns="http://www.w3.org/2000/svg">
<rect width="45" height="30" rx="5" fill="#2AAAB6"/>
<path d="M12.5706 22V9.03998H14.7666L20.7786 18.175V9.03998H22.9746V22H20.7786L14.7666 12.865V22H12.5706Z" fill="white"/>
<path d="M33.4015 11.092L30.4855 13.909C31.1785 14.053 31.7545 14.323 32.2135 14.71C33.1315 15.493 33.6175 16.654 33.6175 17.95C33.6175 18.751 33.4195 19.471 33.0325 20.128C32.2405 21.433 30.7555 22.243 29.1985 22.243C27.1015 22.243 25.4725 20.974 24.9505 19.156L27.0475 18.589C27.3355 19.597 28.1905 20.191 29.1805 20.191C29.5495 20.191 29.9185 20.092 30.2965 19.894C31.0435 19.507 31.4125 18.679 31.4125 17.95C31.4125 17.545 31.3225 17.158 31.1335 16.807C30.7555 16.105 30.0625 15.691 29.1895 15.691C28.7485 15.691 28.3795 15.79 28.0645 15.997L27.0745 14.287L30.8095 11.083H25.4545V9.03998H33.5545L33.4015 11.092Z" fill="white"/>
</svg>
