<svg width="45" height="30" viewBox="0 0 45 30" fill="none" xmlns="http://www.w3.org/2000/svg">
<rect width="45" height="30" rx="5" fill="#F5B5D3"/>
<path d="M23.8387 17.554C23.2357 20.983 20.9857 22.27 18.0067 22.27C14.1277 22.27 11.8057 19.543 11.8057 15.52C11.8057 11.497 14.1277 8.77002 18.0067 8.77002C20.9857 8.77002 23.3617 10.489 23.8387 13.486H21.6427C21.1297 11.821 19.9237 10.813 18.0067 10.813C15.3967 10.813 14.0917 12.685 14.0827 15.52C14.0827 18.355 15.3967 20.227 18.0067 20.227C19.9237 20.227 21.1297 19.228 21.6427 17.554H23.8387Z" fill="#111111"/>
<path d="M29.9997 8.78802C32.5377 8.78802 34.4817 10.732 34.4817 13.486V17.428C34.4817 20.371 32.5827 22.27 29.7567 22.27H27.1287V20.245H29.7567C31.2687 20.245 32.2677 19.039 32.2677 17.725V16.411C31.5567 17.023 30.6387 17.383 29.6847 17.383C27.2457 17.383 25.5087 15.574 25.5087 13.135C25.5087 10.705 27.5607 8.78802 29.9997 8.78802ZM27.7047 13.135C27.7047 14.395 28.7217 15.43 29.9817 15.43C31.2417 15.43 32.2677 14.395 32.2677 13.135C32.2677 11.911 31.2597 10.867 29.9997 10.867C28.7397 10.867 27.7047 11.875 27.7047 13.135Z" fill="#111111"/>
</svg>
