<svg width="45" height="30" viewBox="0 0 45 30" fill="none" xmlns="http://www.w3.org/2000/svg">
<g clip-path="url(#clip0_773_276)">
<path d="M45 24V6C45 2.68629 42.3137 0 39 0L6 0C2.68629 0 0 2.68629 0 6V24C0 27.3137 2.68629 30 6 30L39 30C42.3137 30 45 27.3137 45 24Z" fill="#0BBBEF"/>
<path d="M25.0651 13.4595C26.4586 14.2485 27.2401 15.702 27.2401 17.448C27.2401 18.276 26.9866 19.056 26.4706 19.788C25.4461 21.24 23.9941 22.167 22.3171 22.167C20.1721 22.167 18.3391 20.811 17.7631 18.6855L20.0251 18.081C20.0446 18.1785 20.1901 18.432 20.4736 18.8415C21.0301 19.671 21.7021 19.914 22.4041 19.914C23.7886 19.914 24.8806 18.822 24.8806 17.4465C24.8806 16.071 23.7976 14.9895 22.4041 14.9895C21.4981 14.9895 21.0196 15.1755 20.2486 15.906L18.2401 15.2625L18.6691 7.83301H26.2936V10.0365H20.7646L20.5396 13.4985C21.1726 13.089 22.1476 12.864 22.7236 12.864C23.5816 12.864 24.3616 13.059 25.0636 13.4595H25.0651Z" fill="white"/>
</g>
<defs>
<clipPath id="clip0_773_276">
<rect width="45" height="30" fill="white"/>
</clipPath>
</defs>
</svg>
