<svg width="45" height="30" viewBox="0 0 45 30" fill="none" xmlns="http://www.w3.org/2000/svg">
<rect width="45" height="30" rx="5" fill="#E8B975"/>
<path d="M17.7908 22.27C15.2528 22.27 13.3088 20.326 13.3088 17.572V13.63C13.3088 10.687 15.2078 8.78802 18.0338 8.78802H20.6618V10.813H18.0338C16.5218 10.813 15.5228 12.019 15.5228 13.333V14.647C16.2338 14.035 17.1518 13.675 18.1058 13.675C20.5448 13.675 22.2818 15.484 22.2818 17.923C22.2818 20.353 20.2298 22.27 17.7908 22.27ZM15.5228 17.923C15.5228 19.147 16.5308 20.191 17.7908 20.191C19.0508 20.191 20.0858 19.183 20.0858 17.923C20.0858 16.663 19.0688 15.628 17.8088 15.628C16.5488 15.628 15.5228 16.663 15.5228 17.923Z" fill="#111111"/>
<path d="M28.2165 8.78802C30.7545 8.78802 32.6985 10.732 32.6985 13.486V17.428C32.6985 20.371 30.7995 22.27 27.9735 22.27H25.3455V20.245H27.9735C29.4855 20.245 30.4845 19.039 30.4845 17.725V16.411C29.7735 17.023 28.8555 17.383 27.9015 17.383C25.4625 17.383 23.7255 15.574 23.7255 13.135C23.7255 10.705 25.7775 8.78802 28.2165 8.78802ZM25.9215 13.135C25.9215 14.395 26.9385 15.43 28.1985 15.43C29.4585 15.43 30.4845 14.395 30.4845 13.135C30.4845 11.911 29.4765 10.867 28.2165 10.867C26.9565 10.867 25.9215 11.875 25.9215 13.135Z" fill="#111111"/>
</svg>
