<svg width="45" height="30" viewBox="0 0 45 30" fill="none" xmlns="http://www.w3.org/2000/svg">
<g clip-path="url(#clip0_191_83)">
<path d="M40 0H5C2.23858 0 0 2.23858 0 5V25C0 27.7614 2.23858 30 5 30H40C42.7614 30 45 27.7614 45 25V5C45 2.23858 42.7614 0 40 0Z" fill="#0BBBEF"/>
<path d="M7.7937 8.0784V18.408H13.8225V21H7.4673C6.5841 21 5.9505 20.7824 5.5665 20.3472C5.1825 19.912 4.9905 19.3296 4.9905 18.6V8.0784H7.7937ZM21.379 21.2688C20.4318 21.2688 19.555 21.096 18.7486 20.7504C17.9422 20.4048 17.2318 19.9248 16.6174 19.3104C16.003 18.696 15.523 17.9856 15.1774 17.1792C14.8446 16.36 14.6782 15.4832 14.6782 14.5488C14.6782 13.6016 14.8446 12.7248 15.1774 11.9184C15.523 11.112 16.003 10.4016 16.6174 9.7872C17.2318 9.1728 17.9422 8.6928 18.7486 8.3472C19.555 8.0016 20.4318 7.8288 21.379 7.8288C22.1215 7.8288 22.8447 7.9568 23.5486 8.2128C24.2527 8.4688 24.8799 8.8336 25.4303 9.3072C25.9935 9.7808 26.4287 10.3568 26.7359 11.0352L24.4511 12.3216C24.1311 11.7584 23.7151 11.3168 23.2031 10.9968C22.6911 10.664 22.0447 10.4976 21.2639 10.4976C20.7263 10.4976 20.2271 10.6 19.7662 10.8048C19.3182 10.9968 18.9278 11.2784 18.595 11.6496C18.2622 12.008 18.0062 12.4368 17.827 12.936C17.6478 13.4224 17.5582 13.96 17.5582 14.5488C17.5582 15.1248 17.6478 15.6624 17.827 16.1616C18.0062 16.6608 18.2558 17.096 18.5758 17.4672C18.9086 17.8256 19.3054 18.1072 19.7662 18.312C20.2271 18.504 20.7263 18.6 21.2639 18.6C22.0447 18.6 22.6911 18.4336 23.2031 18.1008C23.7279 17.768 24.1439 17.3264 24.4511 16.776L26.7359 18.0624C26.4287 18.7408 25.9935 19.3168 25.4303 19.7904C24.8799 20.264 24.2527 20.6288 23.5486 20.8848C22.8447 21.1408 22.1215 21.2688 21.379 21.2688ZM34.3545 21.2496C33.4073 21.2496 32.5241 21.0832 31.7049 20.7504C30.8857 20.4176 30.1689 19.9504 29.5545 19.3488C28.9529 18.7344 28.4793 18.0176 28.1337 17.1984C27.8009 16.3792 27.6345 15.496 27.6345 14.5488C27.6345 13.6016 27.8009 12.7184 28.1337 11.8992C28.4793 11.08 28.9529 10.3696 29.5545 9.768C30.1689 9.1664 30.8857 8.6992 31.7049 8.3664C32.5241 8.0208 33.4073 7.848 34.3545 7.848C35.3145 7.848 36.1977 8.0208 37.0041 8.3664C37.8233 8.6992 38.5401 9.1664 39.1545 9.768C39.7689 10.3696 40.2425 11.08 40.5753 11.8992C40.9209 12.7184 41.0937 13.6016 41.0937 14.5488C41.0937 15.496 40.9209 16.3792 40.5753 17.1984C40.2425 18.0176 39.7689 18.7344 39.1545 19.3488C38.5401 19.9504 37.8233 20.4176 37.0041 20.7504C36.1977 21.0832 35.3145 21.2496 34.3545 21.2496ZM34.3545 18.6C34.8921 18.6 35.3913 18.4976 35.8521 18.2928C36.3257 18.088 36.7353 17.8 37.0809 17.4288C37.4393 17.0576 37.7145 16.6288 37.9065 16.1424C38.0985 15.6432 38.1945 15.112 38.1945 14.5488C38.1945 13.9728 38.0985 13.4416 37.9065 12.9552C37.7145 12.4688 37.4393 12.04 37.0809 11.6688C36.7353 11.2976 36.3257 11.0096 35.8521 10.8048C35.3913 10.6 34.8921 10.4976 34.3545 10.4976C33.8169 10.4976 33.3113 10.6 32.8377 10.8048C32.3769 11.0096 31.9673 11.2976 31.6089 11.6688C31.2633 12.04 30.9945 12.4688 30.8025 12.9552C30.6105 13.4416 30.5145 13.9728 30.5145 14.5488C30.5145 15.112 30.6105 15.6432 30.8025 16.1424C30.9945 16.6288 31.2633 17.0576 31.6089 17.4288C31.9673 17.8 32.3769 18.088 32.8377 18.2928C33.3113 18.4976 33.8169 18.6 34.3545 18.6Z" fill="white"/>
</g>
<defs>
<clipPath id="clip0_191_83">
<rect width="45" height="30" fill="white"/>
</clipPath>
</defs>
</svg>
