<svg width="45" height="30" viewBox="0 0 45 30" fill="none" xmlns="http://www.w3.org/2000/svg">
<rect width="45" height="30" rx="5" fill="#F5B5D3"/>
<path d="M22.212 11.092L19.296 13.909C19.989 14.053 20.565 14.323 21.024 14.71C21.942 15.493 22.428 16.654 22.428 17.95C22.428 18.751 22.23 19.471 21.843 20.128C21.051 21.433 19.566 22.243 18.009 22.243C15.912 22.243 14.283 20.974 13.761 19.156L15.858 18.589C16.146 19.597 17.001 20.191 17.991 20.191C18.36 20.191 18.729 20.092 19.107 19.894C19.854 19.507 20.223 18.679 20.223 17.95C20.223 17.545 20.133 17.158 19.944 16.807C19.566 16.105 18.873 15.691 18 15.691C17.559 15.691 17.19 15.79 16.875 15.997L15.885 14.287L19.62 11.083H14.265V9.03998H22.365L22.212 11.092Z" fill="#111111"/>
<path d="M32.671 11.092L29.755 13.909C30.448 14.053 31.024 14.323 31.483 14.71C32.401 15.493 32.887 16.654 32.887 17.95C32.887 18.751 32.689 19.471 32.302 20.128C31.51 21.433 30.025 22.243 28.468 22.243C26.371 22.243 24.742 20.974 24.22 19.156L26.317 18.589C26.605 19.597 27.46 20.191 28.45 20.191C28.819 20.191 29.188 20.092 29.566 19.894C30.313 19.507 30.682 18.679 30.682 17.95C30.682 17.545 30.592 17.158 30.403 16.807C30.025 16.105 29.332 15.691 28.459 15.691C28.018 15.691 27.649 15.79 27.334 15.997L26.344 14.287L30.079 11.083H24.724V9.03998H32.824L32.671 11.092Z" fill="#111111"/>
</svg>
