<svg width="45" height="30" viewBox="0 0 66 44" fill="none" xmlns="http://www.w3.org/2000/svg">
<g clip-path="url(#clip0_69_248)">
<path d="M58.6667 0H7.33333C3.28325 0 0 3.28325 0 7.33333V36.6667C0 40.7168 3.28325 44 7.33333 44H58.6667C62.7168 44 66 40.7168 66 36.6667V7.33333C66 3.28325 62.7168 0 58.6667 0Z" fill="#EB2C8F"/>
<path d="M35 32V13H38.195L46.942 26.3924V13H50.137V32H46.942L38.195 18.6076V32H35Z" fill="white"/>
<path d="M16 32V13H19.195L27.942 26.3924V13H31.137V32H27.942L19.195 18.6076V32H16Z" fill="white"/>
</g>
<defs>
<clipPath id="clip0_69_248">
<rect width="66" height="44" fill="white"/>
</clipPath>
</defs>
</svg>
