<svg width="45" height="30" viewBox="0 0 66 44" fill="none" xmlns="http://www.w3.org/2000/svg">
<g clip-path="url(#clip0_69_248)">
<path d="M58.6667 0H7.33333C3.28325 0 0 3.28325 0 7.33333V36.6667C0 40.7168 3.28325 44 7.33333 44H58.6667C62.7168 44 66 40.7168 66 36.6667V7.33333C66 3.28325 62.7168 0 58.6667 0Z" fill="#FFF221"/>
<path d="M15 32V13H18.195L26.942 26.3924V13H30.137V32H26.942L18.195 18.6076V32H15Z" fill="#1E3480"/>
<path d="M41.9935 32C36.3677 32 33 28.162 33 22.5C33 16.838 36.3677 13 41.9935 13C47.6323 13 51 16.838 51 22.5C51 28.162 47.6323 32 41.9935 32ZM36.3285 22.5C36.3154 26.49 38.2081 29.074 41.9935 29.1247C45.7788 29.1627 47.6715 26.49 47.6715 22.5C47.6715 18.51 45.7788 15.926 41.9935 15.8753C38.2081 15.8373 36.3416 18.51 36.3285 22.5Z" fill="#1E3480"/>
</g>
<defs>
<clipPath id="clip0_69_248">
<rect width="66" height="44" fill="white"/>
</clipPath>
</defs>
</svg>
