<svg width="45" height="30" viewBox="0 0 45 30" fill="none" xmlns="http://www.w3.org/2000/svg">
<rect width="45" height="30" rx="5" fill="#0BBBEF"/>
<path d="M24.9822 17.554C24.3792 20.983 22.1292 22.27 19.1502 22.27C15.2712 22.27 12.9492 19.543 12.9492 15.52C12.9492 11.497 15.2712 8.77002 19.1502 8.77002C22.1292 8.77002 24.5052 10.489 24.9822 13.486H22.7862C22.2732 11.821 21.0672 10.813 19.1502 10.813C16.5402 10.813 15.2352 12.685 15.2262 15.52C15.2262 18.355 16.5402 20.227 19.1502 20.227C21.0672 20.227 22.2732 19.228 22.7862 17.554H24.9822Z" fill="white"/>
<path d="M31.4223 9.04002V22H29.2083V11.407L26.7783 12.892V10.498L29.2083 9.04002H31.4223Z" fill="white"/>
</svg>
