<svg width="45" height="30" viewBox="0 0 45 30" fill="none" xmlns="http://www.w3.org/2000/svg">
<rect width="45" height="30" rx="5" fill="#27B19A"/>
<path d="M21.6191 19.966V22H13.7261V9.04003H15.8951V19.966H21.6191Z" fill="#4A4595"/>
<path d="M27.9407 22.27C25.1057 22.27 22.9817 20.713 22.5767 18.166L24.8267 17.824C25.2047 19.363 26.5097 20.236 28.0757 20.236C29.4617 20.236 30.7577 19.57 30.7577 18.373C30.7577 17.653 30.2987 17.176 29.3177 16.879L25.9697 15.889C24.8177 15.556 23.0807 14.863 23.0807 12.577C23.0807 10.075 25.1777 8.77003 27.8147 8.78803C30.4787 8.81503 32.3507 10.174 32.9267 12.577L30.5957 12.982C30.3167 11.614 29.1197 10.849 27.7877 10.813C26.4917 10.786 25.3577 11.461 25.3577 12.469C25.3577 13.432 26.3567 13.783 27.2297 14.017L29.5517 14.665C30.8117 15.007 33.0257 15.655 33.0257 18.229C33.0257 20.92 30.6047 22.27 27.9407 22.27Z" fill="#4A4595"/>
</svg>
