<svg width="45" height="30" viewBox="0 0 45 30" fill="none" xmlns="http://www.w3.org/2000/svg">
<g clip-path="url(#clip0_185_82)">
<path d="M40 0H5C2.23858 0 0 2.23858 0 5V25C0 27.7614 2.23858 30 5 30H40C42.7614 30 45 27.7614 45 25V5C45 2.23858 42.7614 0 40 0Z" fill="#00A754"/>
<path d="M9.17183 8.0784V18.408H15.2006V21H8.84543C7.96223 21 7.32863 20.7824 6.94463 20.3472C6.56063 19.912 6.36863 19.3296 6.36863 18.6V8.0784H9.17183ZM22.7572 21.2688C21.81 21.2688 20.9332 21.096 20.1268 20.7504C19.3204 20.4048 18.61 19.9248 17.9956 19.3104C17.3812 18.696 16.9012 17.9856 16.5556 17.1792C16.2228 16.36 16.0564 15.4832 16.0564 14.5488C16.0564 13.6016 16.2228 12.7248 16.5556 11.9184C16.9012 11.112 17.3812 10.4016 17.9956 9.7872C18.61 9.1728 19.3204 8.6928 20.1268 8.3472C20.9332 8.0016 21.81 7.8288 22.7572 7.8288C23.4996 7.8288 24.2228 7.9568 24.9268 8.2128C25.6308 8.4688 26.258 8.8336 26.8084 9.3072C27.3716 9.7808 27.8068 10.3568 28.114 11.0352L25.8292 12.3216C25.5092 11.7584 25.0932 11.3168 24.5812 10.9968C24.0692 10.664 23.4228 10.4976 22.642 10.4976C22.1044 10.4976 21.6052 10.6 21.1444 10.8048C20.6964 10.9968 20.306 11.2784 19.9732 11.6496C19.6404 12.008 19.3844 12.4368 19.2052 12.936C19.026 13.4224 18.9364 13.96 18.9364 14.5488C18.9364 15.1248 19.026 15.6624 19.2052 16.1616C19.3844 16.6608 19.634 17.096 19.954 17.4672C20.2868 17.8256 20.6836 18.1072 21.1444 18.312C21.6052 18.504 22.1044 18.6 22.642 18.6C23.4228 18.6 24.0692 18.4336 24.5812 18.1008C25.106 17.768 25.522 17.3264 25.8292 16.776L28.114 18.0624C27.8068 18.7408 27.3716 19.3168 26.8084 19.7904C26.258 20.264 25.6308 20.6288 24.9268 20.8848C24.2228 21.1408 23.4996 21.2688 22.7572 21.2688ZM39.3413 21H32.3909C31.5077 21 30.8741 20.7824 30.4901 20.3472C30.1061 19.912 29.9141 19.3296 29.9141 18.6V10.4976C29.9141 9.7552 30.1061 9.1664 30.4901 8.7312C30.8741 8.296 31.5077 8.0784 32.3909 8.0784H39.2261V10.5936H32.7173V18.4848H39.3413V21ZM38.8229 15.7968H32.0645L31.6997 13.2816H38.8229V15.7968Z" fill="white"/>
</g>
<defs>
<clipPath id="clip0_185_82">
<rect width="45" height="30" fill="white"/>
</clipPath>
</defs>
</svg>
