<svg width="45" height="30" viewBox="0 0 45 30" fill="none" xmlns="http://www.w3.org/2000/svg">
<rect width="45" height="30" rx="5" fill="#BCA3CE"/>
<path d="M18.5915 8.78802C21.1295 8.78802 23.0735 10.732 23.0735 13.486V17.428C23.0735 20.371 21.1745 22.27 18.3485 22.27H15.7205V20.245H18.3485C19.8605 20.245 20.8595 19.039 20.8595 17.725V16.411C20.1485 17.023 19.2305 17.383 18.2765 17.383C15.8375 17.383 14.1005 15.574 14.1005 13.135C14.1005 10.705 16.1525 8.78802 18.5915 8.78802ZM16.2965 13.135C16.2965 14.395 17.3135 15.43 18.5735 15.43C19.8335 15.43 20.8595 14.395 20.8595 13.135C20.8595 11.911 19.8515 10.867 18.5915 10.867C17.3315 10.867 16.2965 11.875 16.2965 13.135Z" fill="white"/>
<path d="M26.1728 22L30.6368 11.092H24.9758V9.04002H32.9588V11.092L28.5128 22H26.1728Z" fill="white"/>
</svg>
