<svg width="45" height="30" viewBox="0 0 45 30" fill="none" xmlns="http://www.w3.org/2000/svg">
<g clip-path="url(#clip0_191_89)">
<path d="M40 0H5C2.23858 0 0 2.23858 0 5V25C0 27.7614 2.23858 30 5 30H40C42.7614 30 45 27.7614 45 25V5C45 2.23858 42.7614 0 40 0Z" fill="#2581C4"/>
<path d="M9.67177 21H7.00297V9.8448C7.00297 9.4224 7.09257 9.0576 7.27177 8.7504C7.46377 8.4432 7.71337 8.2128 8.02057 8.0592C8.32777 7.8928 8.65417 7.8096 8.99977 7.8096C9.42217 7.8096 9.79977 7.8928 10.1326 8.0592C10.4654 8.2128 10.7342 8.4688 10.939 8.8272L16.4494 18.2736C16.3982 18.2352 16.3534 18.216 16.315 18.216C16.2766 18.2032 16.2446 18.1968 16.219 18.1968C16.1806 18.1968 16.1422 18.216 16.1038 18.2544C16.0654 18.2928 16.0462 18.3504 16.0462 18.4272V8.0784H18.6958V19.2336C18.6958 19.6688 18.5998 20.04 18.4078 20.3472C18.2286 20.6416 17.9854 20.8656 17.6782 21.0192C17.3838 21.1728 17.0702 21.2496 16.7374 21.2496C16.3278 21.2496 15.9502 21.1664 15.6046 21C15.259 20.8464 14.9838 20.5968 14.779 20.2512L9.32617 10.8432C9.36457 10.8688 9.39657 10.888 9.42217 10.9008C9.46057 10.9008 9.49897 10.9008 9.53737 10.9008C9.57577 10.9008 9.60777 10.8816 9.63337 10.8432C9.65897 10.8048 9.67177 10.7536 9.67177 10.6896V21ZM26.9972 21H22.0436V8.0784H27.0356C28.6484 8.0784 29.9092 8.3984 30.818 9.0384C31.7396 9.6656 32.2004 10.5296 32.2004 11.6304C32.2004 12.3344 32.0276 12.9296 31.682 13.416C31.3492 13.9024 30.8884 14.2736 30.2996 14.5296C29.7236 14.7728 29.0516 14.8944 28.2836 14.8944V14.3568C29.0388 14.3568 29.7236 14.4464 30.338 14.6256C30.9524 14.8048 31.4388 15.1184 31.7972 15.5664C32.1556 16.0016 32.3348 16.6096 32.3348 17.3904C32.3348 18.0176 32.2004 18.5616 31.9316 19.0224C31.6756 19.4832 31.3044 19.8608 30.818 20.1552C30.3444 20.4368 29.7812 20.648 29.1284 20.7888C28.4884 20.9296 27.778 21 26.9972 21ZM24.8468 15.7584V18.696H27.1508C27.4964 18.696 27.81 18.6768 28.0916 18.6384C28.386 18.5872 28.6356 18.5104 28.8404 18.408C29.058 18.2928 29.2244 18.1392 29.3396 17.9472C29.4676 17.7424 29.5316 17.4928 29.5316 17.1984C29.5316 16.648 29.3332 16.2704 28.9364 16.0656C28.5396 15.8608 27.9508 15.7584 27.17 15.7584H24.8468ZM24.8468 10.3824V13.4544H27.17C27.938 13.4544 28.5012 13.32 28.8596 13.0512C29.218 12.7824 29.3972 12.3856 29.3972 11.8608C29.3972 11.3744 29.2052 11.0096 28.8212 10.7664C28.45 10.5104 27.906 10.3824 27.1892 10.3824H24.8468ZM35.0749 8.0784H37.8781V21H35.0749V8.0784Z" fill="white"/>
</g>
<defs>
<clipPath id="clip0_191_89">
<rect width="45" height="30" fill="white"/>
</clipPath>
</defs>
</svg>
