<svg width="45" height="30" viewBox="0 0 45 30" fill="none" xmlns="http://www.w3.org/2000/svg">
<rect width="45" height="30" rx="5" fill="#FFEE00"/>
<path d="M21.4687 19.966V22H13.5757V9.04002H15.7447V19.966H21.4687Z" fill="#4A4595"/>
<path d="M28.1228 22.27C24.2438 22.27 21.9218 19.543 21.9218 15.52C21.9218 11.497 24.2438 8.77002 28.1228 8.77002C32.0108 8.77002 34.3328 11.497 34.3328 15.52C34.3328 19.543 32.0108 22.27 28.1228 22.27ZM24.2168 15.52C24.2078 18.355 25.5128 20.191 28.1228 20.227C30.7328 20.254 32.0378 18.355 32.0378 15.52C32.0378 12.685 30.7328 10.849 28.1228 10.813C25.5128 10.786 24.2258 12.685 24.2168 15.52Z" fill="#4A4595"/>
</svg>
