<svg width="45" height="30" viewBox="0 0 45 30" fill="none" xmlns="http://www.w3.org/2000/svg">
<rect width="45" height="30" rx="5" fill="#2581C4"/>
<path d="M18.0623 22.27C15.5243 22.27 13.5803 20.326 13.5803 17.572V13.63C13.5803 10.687 15.4793 8.78802 18.3053 8.78802H20.9333V10.813H18.3053C16.7933 10.813 15.7943 12.019 15.7943 13.333V14.647C16.5053 14.035 17.4233 13.675 18.3773 13.675C20.8163 13.675 22.5533 15.484 22.5533 17.923C22.5533 20.353 20.5013 22.27 18.0623 22.27ZM15.7943 17.923C15.7943 19.147 16.8023 20.191 18.0623 20.191C19.3223 20.191 20.3573 19.183 20.3573 17.923C20.3573 16.663 19.3403 15.628 18.0803 15.628C16.8203 15.628 15.7943 16.663 15.7943 17.923Z" fill="white"/>
<path d="M29.242 22.27C26.704 22.27 24.76 20.326 24.76 17.572V13.63C24.76 10.687 26.659 8.78802 29.485 8.78802H32.113V10.813H29.485C27.973 10.813 26.974 12.019 26.974 13.333V14.647C27.685 14.035 28.603 13.675 29.557 13.675C31.996 13.675 33.733 15.484 33.733 17.923C33.733 20.353 31.681 22.27 29.242 22.27ZM26.974 17.923C26.974 19.147 27.982 20.191 29.242 20.191C30.502 20.191 31.537 19.183 31.537 17.923C31.537 16.663 30.52 15.628 29.26 15.628C28 15.628 26.974 16.663 26.974 17.923Z" fill="white"/>
</svg>
