<svg width="45" height="30" viewBox="0 0 45 30" fill="none" xmlns="http://www.w3.org/2000/svg">
<rect width="45" height="30" rx="5" fill="white"/>
<path d="M21.3896 19.966V22H13.4966V9.04002H15.6656V19.966H21.3896Z" fill="#4A4595"/>
<path d="M34.2272 17.554C33.6242 20.983 31.3742 22.27 28.3952 22.27C24.5162 22.27 22.1942 19.543 22.1942 15.52C22.1942 11.497 24.5162 8.77002 28.3952 8.77002C31.3742 8.77002 33.7502 10.489 34.2272 13.486H32.0312C31.5182 11.821 30.3122 10.813 28.3952 10.813C25.7852 10.813 24.4802 12.685 24.4712 15.52C24.4712 18.355 25.7852 20.227 28.3952 20.227C30.3122 20.227 31.5182 19.228 32.0312 17.554H34.2272Z" fill="#4A4595"/>
</svg>
