<svg width="45" height="30" viewBox="0 0 45 30" fill="none" xmlns="http://www.w3.org/2000/svg">
<rect width="45" height="30" rx="5" fill="#F7A600"/>
<path d="M23.699 17.554C23.096 20.983 20.846 22.27 17.867 22.27C13.988 22.27 11.666 19.543 11.666 15.52C11.666 11.497 13.988 8.77002 17.867 8.77002C20.846 8.77002 23.222 10.489 23.699 13.486H21.503C20.99 11.821 19.784 10.813 17.867 10.813C15.257 10.813 13.952 12.685 13.943 15.52C13.943 18.355 15.257 20.227 17.867 20.227C19.784 20.227 20.99 19.228 21.503 17.554H23.699Z" fill="#111111"/>
<path d="M33.5861 11.092L30.6701 13.909C31.3631 14.053 31.9391 14.323 32.3981 14.71C33.3161 15.493 33.8021 16.654 33.8021 17.95C33.8021 18.751 33.6041 19.471 33.2171 20.128C32.4251 21.433 30.9401 22.243 29.3831 22.243C27.2861 22.243 25.6571 20.974 25.1351 19.156L27.2321 18.589C27.5201 19.597 28.3751 20.191 29.3651 20.191C29.7341 20.191 30.1031 20.092 30.4811 19.894C31.2281 19.507 31.5971 18.679 31.5971 17.95C31.5971 17.545 31.5071 17.158 31.3181 16.807C30.9401 16.105 30.2471 15.691 29.3741 15.691C28.9331 15.691 28.5641 15.79 28.2491 15.997L27.2591 14.287L30.9941 11.083H25.6391V9.04002H33.7391L33.5861 11.092Z" fill="#111111"/>
</svg>
