<svg width="45" height="30" viewBox="0 0 45 30" fill="none" xmlns="http://www.w3.org/2000/svg">
<rect width="45" height="30" rx="5" fill="#2AAAB6"/>
<path d="M12.4387 22V9.04H14.6347L20.6467 18.175V9.04H22.8427V22H20.6467L14.6347 12.865V22H12.4387ZM24.9986 21.982V20.092L30.5426 15.151C31.3976 14.386 31.6946 13.711 31.6946 13.072C31.6946 11.776 30.8036 10.813 29.5166 10.813C28.1666 10.813 27.2126 11.866 27.2486 13.054H25.0166C25.0166 10.462 26.8796 8.77 29.5616 8.77C32.0546 8.77 33.9176 10.561 33.9176 13.099C33.9176 14.953 33.1526 15.7 31.6766 16.996L28.3556 19.939H33.9176V21.982H24.9986Z" fill="white"/>
</svg>
