<svg width="45" height="30" viewBox="0 0 45 30" fill="none" xmlns="http://www.w3.org/2000/svg">
<g clip-path="url(#clip0_191_77)">
<path d="M40 0H5C2.23858 0 0 2.23858 0 5V25C0 27.7614 2.23858 30 5 30H40C42.7614 30 45 27.7614 45 25V5C45 2.23858 42.7614 0 40 0Z" fill="#E30613"/>
<path d="M7.70932 8.0784V18.408H13.7381V21H7.38292C6.49972 21 5.86612 20.7824 5.48212 20.3472C5.09812 19.912 4.90612 19.3296 4.90612 18.6V8.0784H7.70932ZM21.2947 21.2688C20.3475 21.2688 19.4707 21.096 18.6643 20.7504C17.8579 20.4048 17.1475 19.9248 16.5331 19.3104C15.9187 18.696 15.4387 17.9856 15.0931 17.1792C14.7603 16.36 14.5939 15.4832 14.5939 14.5488C14.5939 13.6016 14.7603 12.7248 15.0931 11.9184C15.4387 11.112 15.9187 10.4016 16.5331 9.7872C17.1475 9.1728 17.8579 8.6928 18.6643 8.3472C19.4707 8.0016 20.3475 7.8288 21.2947 7.8288C22.0371 7.8288 22.7603 7.9568 23.4643 8.2128C24.1683 8.4688 24.7955 8.8336 25.3459 9.3072C25.9091 9.7808 26.3443 10.3568 26.6515 11.0352L24.3667 12.3216C24.0467 11.7584 23.6307 11.3168 23.1187 10.9968C22.6067 10.664 21.9603 10.4976 21.1795 10.4976C20.6419 10.4976 20.1427 10.6 19.6819 10.8048C19.2339 10.9968 18.8435 11.2784 18.5107 11.6496C18.1779 12.008 17.9219 12.4368 17.7427 12.936C17.5635 13.4224 17.4739 13.96 17.4739 14.5488C17.4739 15.1248 17.5635 15.6624 17.7427 16.1616C17.9219 16.6608 18.1715 17.096 18.4915 17.4672C18.8243 17.8256 19.2211 18.1072 19.6819 18.312C20.1427 18.504 20.6419 18.6 21.1795 18.6C21.9603 18.6 22.6067 18.4336 23.1187 18.1008C23.6435 17.768 24.0595 17.3264 24.3667 16.776L26.6515 18.0624C26.3443 18.7408 25.9091 19.3168 25.3459 19.7904C24.7955 20.264 24.1683 20.6288 23.4643 20.8848C22.7603 21.1408 22.0371 21.2688 21.2947 21.2688ZM31.178 21H28.5092V9.8448C28.5092 9.4224 28.5988 9.0576 28.778 8.7504C28.97 8.4432 29.2196 8.2128 29.5268 8.0592C29.834 7.8928 30.1604 7.8096 30.506 7.8096C30.9284 7.8096 31.306 7.8928 31.6388 8.0592C31.9716 8.2128 32.2404 8.4688 32.4452 8.8272L37.9556 18.2736C37.9044 18.2352 37.8596 18.216 37.8212 18.216C37.7828 18.2032 37.7508 18.1968 37.7252 18.1968C37.6868 18.1968 37.6484 18.216 37.61 18.2544C37.5716 18.2928 37.5524 18.3504 37.5524 18.4272V8.0784H40.202V19.2336C40.202 19.6688 40.106 20.04 39.914 20.3472C39.7348 20.6416 39.4916 20.8656 39.1844 21.0192C38.89 21.1728 38.5764 21.2496 38.2436 21.2496C37.834 21.2496 37.4564 21.1664 37.1108 21C36.7652 20.8464 36.49 20.5968 36.2852 20.2512L30.8324 10.8432C30.8708 10.8688 30.9028 10.888 30.9284 10.9008C30.9668 10.9008 31.0052 10.9008 31.0436 10.9008C31.082 10.9008 31.114 10.8816 31.1396 10.8432C31.1652 10.8048 31.178 10.7536 31.178 10.6896V21Z" fill="white"/>
</g>
<defs>
<clipPath id="clip0_191_77">
<rect width="45" height="30" fill="white"/>
</clipPath>
</defs>
</svg>
