<svg width="45" height="30" viewBox="0 0 45 30" fill="none" xmlns="http://www.w3.org/2000/svg">
<rect width="45" height="30" rx="5" fill="#76B82A"/>
<path d="M17.8985 22.27C15.3245 22.27 13.4795 20.578 13.4795 18.175C13.4795 16.933 13.9835 15.799 14.9465 15.043C14.2175 14.341 13.8125 13.477 13.8125 12.433C13.8125 10.21 15.5045 8.77002 17.8985 8.77002C20.2925 8.77002 21.9935 10.21 21.9935 12.433C21.9935 13.468 21.6245 14.323 20.8775 15.043C21.8225 15.781 22.3445 16.933 22.3445 18.175C22.3445 20.578 20.4815 22.27 17.8985 22.27ZM15.7745 18.175C15.7745 19.516 16.6295 20.227 17.8985 20.227C19.1765 20.227 20.0495 19.516 20.0495 18.175C20.0495 16.843 19.1765 16.114 17.8985 16.114C16.6205 16.114 15.7745 16.843 15.7745 18.175ZM16.1075 12.433C16.1075 13.531 16.8365 14.053 17.8985 14.053C18.9605 14.053 19.6985 13.531 19.6985 12.433C19.6985 11.344 18.9605 10.813 17.8985 10.813C16.8365 10.813 16.1075 11.344 16.1075 12.433Z" fill="white"/>
<path d="M28.866 8.78802C31.404 8.78802 33.348 10.732 33.348 13.486V17.428C33.348 20.371 31.449 22.27 28.623 22.27H25.995V20.245H28.623C30.135 20.245 31.134 19.039 31.134 17.725V16.411C30.423 17.023 29.505 17.383 28.551 17.383C26.112 17.383 24.375 15.574 24.375 13.135C24.375 10.705 26.427 8.78802 28.866 8.78802ZM26.571 13.135C26.571 14.395 27.588 15.43 28.848 15.43C30.108 15.43 31.134 14.395 31.134 13.135C31.134 11.911 30.126 10.867 28.866 10.867C27.606 10.867 26.571 11.875 26.571 13.135Z" fill="white"/>
</svg>
