<svg width="45" height="30" viewBox="0 0 45 30" fill="none" xmlns="http://www.w3.org/2000/svg">
<rect width="45" height="30" rx="5" fill="#F5B5D3"/>
<path d="M17.7149 22.27C15.1409 22.27 13.2959 20.578 13.2959 18.175C13.2959 16.933 13.7999 15.799 14.7629 15.043C14.0339 14.341 13.6289 13.477 13.6289 12.433C13.6289 10.21 15.3209 8.77002 17.7149 8.77002C20.1089 8.77002 21.8099 10.21 21.8099 12.433C21.8099 13.468 21.4409 14.323 20.6939 15.043C21.6389 15.781 22.1609 16.933 22.1609 18.175C22.1609 20.578 20.2979 22.27 17.7149 22.27ZM15.5909 18.175C15.5909 19.516 16.4459 20.227 17.7149 20.227C18.9929 20.227 19.8659 19.516 19.8659 18.175C19.8659 16.843 18.9929 16.114 17.7149 16.114C16.4369 16.114 15.5909 16.843 15.5909 18.175ZM15.9239 12.433C15.9239 13.531 16.6529 14.053 17.7149 14.053C18.7769 14.053 19.5149 13.531 19.5149 12.433C19.5149 11.344 18.7769 10.813 17.7149 10.813C16.6529 10.813 15.9239 11.344 15.9239 12.433Z" fill="#111111"/>
<path d="M28.7184 13.684C29.5104 13.684 30.2304 13.864 30.8784 14.233C32.1654 14.962 32.8854 16.303 32.8854 17.914C32.8854 18.679 32.6514 19.399 32.1744 20.074C31.2294 21.415 29.8884 22.27 28.3404 22.27C26.3604 22.27 24.6684 21.019 24.1374 19.057L26.2254 18.499C26.2434 18.589 26.3784 18.823 26.6394 19.201C27.1524 19.966 27.7734 20.191 28.4214 20.191C29.6994 20.191 30.7074 19.183 30.7074 17.914C30.7074 16.636 29.7084 15.646 28.4214 15.646C27.5844 15.646 27.1434 15.817 26.4324 16.492L24.5784 15.898L24.9744 9.04002H32.0124V11.074H26.9094L26.7024 14.269C27.2874 13.891 28.1874 13.684 28.7184 13.684Z" fill="#111111"/>
</svg>
