<svg width="45" height="30" viewBox="0 0 45 30" fill="none" xmlns="http://www.w3.org/2000/svg">
<rect width="45" height="30" rx="5" fill="#F7A600"/>
<path d="M18.6894 22.27C16.1154 22.27 14.2704 20.578 14.2704 18.175C14.2704 16.933 14.7744 15.799 15.7374 15.043C15.0084 14.341 14.6034 13.477 14.6034 12.433C14.6034 10.21 16.2954 8.77002 18.6894 8.77002C21.0834 8.77002 22.7844 10.21 22.7844 12.433C22.7844 13.468 22.4154 14.323 21.6684 15.043C22.6134 15.781 23.1354 16.933 23.1354 18.175C23.1354 20.578 21.2724 22.27 18.6894 22.27ZM16.5654 18.175C16.5654 19.516 17.4204 20.227 18.6894 20.227C19.9674 20.227 20.8404 19.516 20.8404 18.175C20.8404 16.843 19.9674 16.114 18.6894 16.114C17.4114 16.114 16.5654 16.843 16.5654 18.175ZM16.8984 12.433C16.8984 13.531 17.6274 14.053 18.6894 14.053C19.7514 14.053 20.4894 13.531 20.4894 12.433C20.4894 11.344 19.7514 10.813 18.6894 10.813C17.6274 10.813 16.8984 11.344 16.8984 12.433Z" fill="#111111"/>
<path d="M26.1289 22L30.5929 11.092H24.9319V9.04002H32.9149V11.092L28.4689 22H26.1289Z" fill="#111111"/>
</svg>
