<svg width="45" height="30" viewBox="0 0 45 30" fill="none" xmlns="http://www.w3.org/2000/svg">
<rect width="45" height="30" rx="5" fill="#FFED00"/>
<path d="M17.7838 13.684C18.5758 13.684 19.2958 13.864 19.9438 14.233C21.2308 14.962 21.9508 16.303 21.9508 17.914C21.9508 18.679 21.7168 19.399 21.2398 20.074C20.2948 21.415 18.9538 22.27 17.4058 22.27C15.4258 22.27 13.7338 21.019 13.2028 19.057L15.2908 18.499C15.3088 18.589 15.4438 18.823 15.7048 19.201C16.2178 19.966 16.8388 20.191 17.4868 20.191C18.7648 20.191 19.7728 19.183 19.7728 17.914C19.7728 16.636 18.7738 15.646 17.4868 15.646C16.6498 15.646 16.2088 15.817 15.4978 16.492L13.6438 15.898L14.0398 9.04002H21.0778V11.074H15.9748L15.7678 14.269C16.3528 13.891 17.2528 13.684 17.7838 13.684Z" fill="#111111"/>
<path d="M28.7716 22.27C26.0086 22.27 24.1096 20.371 24.1096 17.608V13.432C24.1096 10.669 26.0086 8.77002 28.7716 8.77002C31.5346 8.77002 33.4336 10.669 33.4336 13.432V17.608C33.4336 20.371 31.5346 22.27 28.7716 22.27ZM26.3236 17.761C26.3236 19.129 27.4036 20.209 28.7716 20.209C30.1396 20.209 31.2196 19.129 31.2196 17.761V13.27C31.2196 11.893 30.1396 10.813 28.7716 10.813C27.4036 10.813 26.3236 11.893 26.3236 13.27V17.761Z" fill="#111111"/>
</svg>
